<?xml version="1.0" encoding="UTF-8" standalone="no"?>
<!DOCTYPE svg PUBLIC "-//W3C//DTD SVG 1.1//EN"
 "http://www.w3.org/Graphics/SVG/1.1/DTD/svg11.dtd">
<!-- Generated by graphviz version 2.43.0 (0)
 -->
<!-- Title: G Pages: 1 -->
<svg width="476pt" height="387pt"
 viewBox="0.00 0.00 476.00 387.00" xmlns="http://www.w3.org/2000/svg" xmlns:xlink="http://www.w3.org/1999/xlink">
<g id="graph0" class="graph" transform="scale(1 1) rotate(0) translate(4 383)">
<title>G</title><style>.edge>path:hover{stroke-width:8}</style>
<polygon fill="white" stroke="transparent" points="-4,4 -4,-383 472,-383 472,4 -4,4"/>
<g id="clust1" class="cluster">
<title>cluster_dpdl</title><style>.edge>path:hover{stroke-width:8}</style>
<polygon fill="none" stroke="black" points="8,-8 8,-371 460,-371 460,-8 8,-8"/>
<text text-anchor="middle" x="234" y="-355.8" font-family="Times,serif" font-size="14.00">dpdl</text>
</g>
<!-- dpdl_callbacks -->
<g id="node1" class="node">
<title>dpdl_callbacks</title><style>.edge>path:hover{stroke-width:8}</style>
<ellipse fill="#b34c4c" stroke="black" cx="173" cy="-250" rx="34.29" ry="18"/>
<text text-anchor="middle" x="173" y="-247.5" font-family="Helvetica,sans-Serif" font-size="10.00" fill="#ffffff">callbacks</text>
</g>
<!-- dpdl_trainer -->
<g id="node9" class="node">
<title>dpdl_trainer</title><style>.edge>path:hover{stroke-width:8}</style>
<ellipse fill="#a13535" stroke="black" cx="247" cy="-178" rx="27" ry="18"/>
<text text-anchor="middle" x="247" y="-175.5" font-family="Helvetica,sans-Serif" font-size="10.00" fill="#ffffff">trainer</text>
</g>
<!-- dpdl_callbacks&#45;&gt;dpdl_trainer -->
<g id="edge1" class="edge">
<title>dpdl_callbacks&#45;&gt;dpdl_trainer</title><style>.edge>path:hover{stroke-width:8}</style>
<path fill="none" stroke="black" d="M189.06,-233.81C199.42,-224.01 213.05,-211.12 224.48,-200.3"/>
<polygon fill="#000000" stroke="black" points="227.12,-202.62 231.98,-193.21 222.31,-197.53 227.12,-202.62"/>
</g>
<!-- dpdl_cli -->
<g id="node2" class="node">
<title>dpdl_cli</title><style>.edge>path:hover{stroke-width:8}</style>
<ellipse fill="#8b4b4b" stroke="black" cx="293" cy="-34" rx="27" ry="18"/>
<text text-anchor="middle" x="293" y="-31.5" font-family="Helvetica,sans-Serif" font-size="10.00" fill="#ffffff">cli</text>
</g>
<!-- dpdl_configurationmanager -->
<g id="node3" class="node">
<title>dpdl_configurationmanager</title><style>.edge>path:hover{stroke-width:8}</style>
<ellipse fill="#f91010" stroke="black" cx="361" cy="-322" rx="64.51" ry="18"/>
<text text-anchor="middle" x="361" y="-319.5" font-family="Helvetica,sans-Serif" font-size="10.00" fill="#ffffff">configurationmanager</text>
</g>
<!-- dpdl_configurationmanager&#45;&gt;dpdl_callbacks -->
<g id="edge2" class="edge">
<title>dpdl_configurationmanager&#45;&gt;dpdl_callbacks</title><style>.edge>path:hover{stroke-width:8}</style>
<path fill="none" stroke="black" d="M322.74,-307.32C293.44,-296.78 252.07,-281.72 216,-268 213.64,-267.1 211.2,-266.17 208.75,-265.22"/>
<polygon fill="#000000" stroke="black" points="209.92,-261.92 199.34,-261.54 207.38,-268.44 209.92,-261.92"/>
</g>
<!-- dpdl_configurationmanager&#45;&gt;dpdl_cli -->
<g id="edge3" class="edge">
<title>dpdl_configurationmanager&#45;&gt;dpdl_cli</title><style>.edge>path:hover{stroke-width:8}</style>
<path fill="none" stroke="black" d="M386.08,-305.17C398.92,-295.83 413.76,-282.93 423,-268 448.61,-226.62 457.19,-205.89 441,-160 421.77,-105.47 361.61,-67.8 324.18,-48.94"/>
<polygon fill="#000000" stroke="black" points="325.71,-45.8 315.19,-44.56 322.64,-52.09 325.71,-45.8"/>
</g>
<!-- dpdl_datamodules -->
<g id="node4" class="node">
<title>dpdl_datamodules</title><style>.edge>path:hover{stroke-width:8}</style>
<ellipse fill="#a44646" stroke="black" cx="78" cy="-250" rx="42.27" ry="18"/>
<text text-anchor="middle" x="78" y="-247.5" font-family="Helvetica,sans-Serif" font-size="10.00" fill="#ffffff">datamodules</text>
</g>
<!-- dpdl_configurationmanager&#45;&gt;dpdl_datamodules -->
<g id="edge4" class="edge">
<title>dpdl_configurationmanager&#45;&gt;dpdl_datamodules</title><style>.edge>path:hover{stroke-width:8}</style>
<path fill="none" stroke="black" d="M310.2,-310.73C263.17,-300.89 191.45,-285.06 130,-268 126.65,-267.07 123.19,-266.06 119.73,-265.01"/>
<polygon fill="#000000" stroke="black" points="120.63,-261.62 110.04,-261.98 118.54,-268.3 120.63,-261.62"/>
</g>
<!-- dpdl_experimentmanager -->
<g id="node5" class="node">
<title>dpdl_experimentmanager</title><style>.edge>path:hover{stroke-width:8}</style>
<ellipse fill="#c04040" stroke="black" cx="372" cy="-178" rx="60.09" ry="18"/>
<text text-anchor="middle" x="372" y="-175.5" font-family="Helvetica,sans-Serif" font-size="10.00" fill="#ffffff">experimentmanager</text>
</g>
<!-- dpdl_configurationmanager&#45;&gt;dpdl_experimentmanager -->
<g id="edge5" class="edge">
<title>dpdl_configurationmanager&#45;&gt;dpdl_experimentmanager</title><style>.edge>path:hover{stroke-width:8}</style>
<path fill="none" stroke="black" d="M384.94,-305.1C396.67,-295.83 409.62,-283.01 416,-268 422.26,-253.28 421.43,-247.05 416,-232 412.08,-221.15 404.87,-210.95 397.4,-202.45"/>
<polygon fill="#000000" stroke="black" points="399.95,-200.06 390.56,-195.16 394.85,-204.84 399.95,-200.06"/>
</g>
<!-- dpdl_hyperparameteroptimizer -->
<g id="node6" class="node">
<title>dpdl_hyperparameteroptimizer</title><style>.edge>path:hover{stroke-width:8}</style>
<ellipse fill="#a44646" stroke="black" cx="293" cy="-106" rx="72.99" ry="18"/>
<text text-anchor="middle" x="293" y="-103.5" font-family="Helvetica,sans-Serif" font-size="10.00" fill="#ffffff">hyperparameteroptimizer</text>
</g>
<!-- dpdl_configurationmanager&#45;&gt;dpdl_hyperparameteroptimizer -->
<g id="edge6" class="edge">
<title>dpdl_configurationmanager&#45;&gt;dpdl_hyperparameteroptimizer</title><style>.edge>path:hover{stroke-width:8}</style>
<path fill="none" stroke="black" d="M374.23,-304.37C387.5,-285.53 403.99,-254.52 389,-232 366.04,-197.5 327.85,-229.16 303,-196 289.92,-178.55 288.17,-153.51 289.26,-134.43"/>
<polygon fill="#000000" stroke="black" points="292.77,-134.52 290.14,-124.26 285.79,-133.92 292.77,-134.52"/>
</g>
<!-- dpdl_models -->
<g id="node7" class="node">
<title>dpdl_models</title><style>.edge>path:hover{stroke-width:8}</style>
<ellipse fill="#b34c4c" stroke="black" cx="253" cy="-250" rx="28.01" ry="18"/>
<text text-anchor="middle" x="253" y="-247.5" font-family="Helvetica,sans-Serif" font-size="10.00" fill="#ffffff">models</text>
</g>
<!-- dpdl_configurationmanager&#45;&gt;dpdl_models -->
<g id="edge7" class="edge">
<title>dpdl_configurationmanager&#45;&gt;dpdl_models</title><style>.edge>path:hover{stroke-width:8}</style>
<path fill="none" stroke="black" d="M336.76,-305.29C320.13,-294.51 298.03,-280.18 280.7,-268.95"/>
<polygon fill="#000000" stroke="black" points="282.43,-265.9 272.13,-263.4 278.62,-271.78 282.43,-265.9"/>
</g>
<!-- dpdl_optimizers -->
<g id="node8" class="node">
<title>dpdl_optimizers</title><style>.edge>path:hover{stroke-width:8}</style>
<ellipse fill="#b34c4c" stroke="black" cx="336" cy="-250" rx="36.49" ry="18"/>
<text text-anchor="middle" x="336" y="-247.5" font-family="Helvetica,sans-Serif" font-size="10.00" fill="#ffffff">optimizers</text>
</g>
<!-- dpdl_configurationmanager&#45;&gt;dpdl_optimizers -->
<g id="edge8" class="edge">
<title>dpdl_configurationmanager&#45;&gt;dpdl_optimizers</title><style>.edge>path:hover{stroke-width:8}</style>
<path fill="none" stroke="black" d="M354.95,-304.05C352.09,-296.06 348.62,-286.33 345.43,-277.4"/>
<polygon fill="#000000" stroke="black" points="348.66,-276.03 342,-267.79 342.06,-278.38 348.66,-276.03"/>
</g>
<!-- dpdl_configurationmanager&#45;&gt;dpdl_trainer -->
<g id="edge9" class="edge">
<title>dpdl_configurationmanager&#45;&gt;dpdl_trainer</title><style>.edge>path:hover{stroke-width:8}</style>
<path fill="none" stroke="black" d="M371.99,-304.12C382.88,-285.04 395.95,-253.82 381,-232 355.95,-195.44 329.14,-212.49 288,-196 285.09,-194.83 282.07,-193.61 279.05,-192.37"/>
<polygon fill="#000000" stroke="black" points="280.1,-189.02 269.52,-188.45 277.43,-195.49 280.1,-189.02"/>
</g>
<!-- dpdl_datamodules&#45;&gt;dpdl_trainer -->
<g id="edge10" class="edge">
<title>dpdl_datamodules&#45;&gt;dpdl_trainer</title><style>.edge>path:hover{stroke-width:8}</style>
<path fill="none" stroke="black" d="M107.44,-236.81C137.56,-224.33 184.22,-205 215.18,-192.18"/>
<polygon fill="#000000" stroke="black" points="216.74,-195.32 224.64,-188.26 214.06,-188.85 216.74,-195.32"/>
</g>
<!-- dpdl_experimentmanager&#45;&gt;dpdl_cli -->
<g id="edge11" class="edge">
<title>dpdl_experimentmanager&#45;&gt;dpdl_cli</title><style>.edge>path:hover{stroke-width:8}</style>
<path fill="none" stroke="black" d="M377.49,-159.75C382.42,-140.9 387.2,-110.4 375,-88 364.61,-68.91 344.05,-55.64 326.11,-47.16"/>
<polygon fill="#000000" stroke="black" points="327.07,-43.75 316.5,-42.93 324.25,-50.16 327.07,-43.75"/>
</g>
<!-- dpdl_experimentmanager&#45;&gt;dpdl_hyperparameteroptimizer -->
<g id="edge12" class="edge">
<title>dpdl_experimentmanager&#45;&gt;dpdl_hyperparameteroptimizer</title><style>.edge>path:hover{stroke-width:8}</style>
<path fill="none" stroke="black" d="M353.68,-160.76C343.46,-151.71 330.55,-140.27 319.27,-130.28"/>
<polygon fill="#000000" stroke="black" points="321.58,-127.65 311.77,-123.63 316.94,-132.88 321.58,-127.65"/>
</g>
<!-- dpdl_hyperparameteroptimizer&#45;&gt;dpdl_cli -->
<g id="edge13" class="edge">
<title>dpdl_hyperparameteroptimizer&#45;&gt;dpdl_cli</title><style>.edge>path:hover{stroke-width:8}</style>
<path fill="none" stroke="black" d="M293,-87.7C293,-79.98 293,-70.71 293,-62.11"/>
<polygon fill="#000000" stroke="black" points="296.5,-62.1 293,-52.1 289.5,-62.1 296.5,-62.1"/>
</g>
<!-- dpdl_models&#45;&gt;dpdl_trainer -->
<g id="edge14" class="edge">
<title>dpdl_models&#45;&gt;dpdl_trainer</title><style>.edge>path:hover{stroke-width:8}</style>
<path fill="none" stroke="black" d="M251.52,-231.7C250.86,-223.98 250.06,-214.71 249.32,-206.11"/>
<polygon fill="#000000" stroke="black" points="252.81,-205.77 248.47,-196.1 245.83,-206.37 252.81,-205.77"/>
</g>
<!-- dpdl_optimizers&#45;&gt;dpdl_trainer -->
<g id="edge15" class="edge">
<title>dpdl_optimizers&#45;&gt;dpdl_trainer</title><style>.edge>path:hover{stroke-width:8}</style>
<path fill="none" stroke="black" d="M317.13,-234.15C303.9,-223.75 286.1,-209.75 271.74,-198.46"/>
<polygon fill="#000000" stroke="black" points="273.77,-195.6 263.75,-192.17 269.44,-201.1 273.77,-195.6"/>
</g>
<!-- dpdl_trainer&#45;&gt;dpdl_cli -->
<g id="edge16" class="edge">
<title>dpdl_trainer&#45;&gt;dpdl_cli</title><style>.edge>path:hover{stroke-width:8}</style>
<path fill="none" stroke="black" d="M233.22,-162.36C218.01,-144.33 197.37,-113.03 211,-88 221.39,-68.91 241.95,-55.64 259.89,-47.16"/>
<polygon fill="#000000" stroke="black" points="261.75,-50.16 269.5,-42.93 258.93,-43.75 261.75,-50.16"/>
</g>
<!-- dpdl_trainer&#45;&gt;dpdl_hyperparameteroptimizer -->
<g id="edge17" class="edge">
<title>dpdl_trainer&#45;&gt;dpdl_hyperparameteroptimizer</title><style>.edge>path:hover{stroke-width:8}</style>
<path fill="none" stroke="black" d="M257.44,-161.12C263.04,-152.59 270.07,-141.89 276.41,-132.25"/>
<polygon fill="#000000" stroke="black" points="279.39,-134.08 281.96,-123.8 273.54,-130.23 279.39,-134.08"/>
</g>
<!-- dpdl_utils -->
<g id="node10" class="node">
<title>dpdl_utils</title><style>.edge>path:hover{stroke-width:8}</style>
<ellipse fill="#c24747" stroke="black" cx="61" cy="-322" rx="27" ry="18"/>
<text text-anchor="middle" x="61" y="-319.5" font-family="Helvetica,sans-Serif" font-size="10.00" fill="#ffffff">utils</text>
</g>
<!-- dpdl_utils&#45;&gt;dpdl_cli -->
<g id="edge18" class="edge">
<title>dpdl_utils&#45;&gt;dpdl_cli</title><style>.edge>path:hover{stroke-width:8}</style>
<path fill="none" stroke="black" d="M47.75,-305.91C33.71,-287.97 15.06,-257.28 27,-232 74.07,-132.32 199.95,-71.41 260.1,-47.14"/>
<polygon fill="#000000" stroke="black" points="261.5,-50.35 269.51,-43.43 258.93,-43.84 261.5,-50.35"/>
</g>
<!-- dpdl_utils&#45;&gt;dpdl_datamodules -->
<g id="edge19" class="edge">
<title>dpdl_utils&#45;&gt;dpdl_datamodules</title><style>.edge>path:hover{stroke-width:8}</style>
<path fill="none" stroke="black" d="M65.12,-304.05C67.01,-296.26 69.3,-286.82 71.42,-278.08"/>
<polygon fill="#000000" stroke="black" points="74.85,-278.82 73.8,-268.28 68.04,-277.17 74.85,-278.82"/>
</g>
</g>
</svg>
