<?xml version="1.0" encoding="UTF-8" standalone="no"?>
<!DOCTYPE svg PUBLIC "-//W3C//DTD SVG 1.1//EN"
 "http://www.w3.org/Graphics/SVG/1.1/DTD/svg11.dtd">
<!-- Generated by graphviz version 2.43.0 (0)
 -->
<!-- Title: G Pages: 1 -->
<svg width="544pt" height="387pt"
 viewBox="0.00 0.00 544.00 387.00" xmlns="http://www.w3.org/2000/svg" xmlns:xlink="http://www.w3.org/1999/xlink">
<g id="graph0" class="graph" transform="scale(1 1) rotate(0) translate(4 383)">
<title>G</title><style>.edge>path:hover{stroke-width:8}</style>
<polygon fill="white" stroke="transparent" points="-4,4 -4,-383 540,-383 540,4 -4,4"/>
<g id="clust1" class="cluster">
<title>cluster_dpdl</title><style>.edge>path:hover{stroke-width:8}</style>
<polygon fill="none" stroke="black" points="8,-8 8,-371 528,-371 528,-8 8,-8"/>
<text text-anchor="middle" x="268" y="-355.8" font-family="Times,serif" font-size="14.00">dpdl</text>
</g>
<!-- dpdl_callbacks -->
<g id="node1" class="node">
<title>dpdl_callbacks</title><style>.edge>path:hover{stroke-width:8}</style>
<ellipse fill="#b65353" stroke="black" cx="338" cy="-250" rx="34.29" ry="18"/>
<text text-anchor="middle" x="338" y="-247.5" font-family="Helvetica,sans-Serif" font-size="10.00" fill="#ffffff">callbacks</text>
</g>
<!-- dpdl_trainer -->
<g id="node8" class="node">
<title>dpdl_trainer</title><style>.edge>path:hover{stroke-width:8}</style>
<ellipse fill="#a13535" stroke="black" cx="261" cy="-178" rx="27" ry="18"/>
<text text-anchor="middle" x="261" y="-175.5" font-family="Helvetica,sans-Serif" font-size="10.00" fill="#ffffff">trainer</text>
</g>
<!-- dpdl_callbacks&#45;&gt;dpdl_trainer -->
<g id="edge1" class="edge">
<title>dpdl_callbacks&#45;&gt;dpdl_trainer</title><style>.edge>path:hover{stroke-width:8}</style>
<path fill="none" stroke="black" d="M321.67,-234.15C310.66,-224.15 295.98,-210.8 283.82,-199.75"/>
<polygon fill="#000000" stroke="black" points="286.01,-197.01 276.26,-192.87 281.3,-202.19 286.01,-197.01"/>
</g>
<!-- dpdl_cli -->
<g id="node2" class="node">
<title>dpdl_cli</title><style>.edge>path:hover{stroke-width:8}</style>
<ellipse fill="#924e4e" stroke="black" cx="307" cy="-34" rx="27" ry="18"/>
<text text-anchor="middle" x="307" y="-31.5" font-family="Helvetica,sans-Serif" font-size="10.00" fill="#ffffff">cli</text>
</g>
<!-- dpdl_configurationmanager -->
<g id="node3" class="node">
<title>dpdl_configurationmanager</title><style>.edge>path:hover{stroke-width:8}</style>
<ellipse fill="#ce3b3b" stroke="black" cx="455" cy="-250" rx="64.51" ry="18"/>
<text text-anchor="middle" x="455" y="-247.5" font-family="Helvetica,sans-Serif" font-size="10.00" fill="#ffffff">configurationmanager</text>
</g>
<!-- dpdl_configurationmanager&#45;&gt;dpdl_cli -->
<g id="edge2" class="edge">
<title>dpdl_configurationmanager&#45;&gt;dpdl_cli</title><style>.edge>path:hover{stroke-width:8}</style>
<path fill="none" stroke="black" d="M458.02,-231.91C462.63,-200.07 467.77,-131.02 435,-88 413.1,-59.25 372.8,-45.99 343.25,-39.94"/>
<polygon fill="#000000" stroke="black" points="343.77,-36.48 333.3,-38.09 342.49,-43.36 343.77,-36.48"/>
</g>
<!-- dpdl_hyperparameteroptimizer -->
<g id="node5" class="node">
<title>dpdl_hyperparameteroptimizer</title><style>.edge>path:hover{stroke-width:8}</style>
<ellipse fill="#ac4949" stroke="black" cx="353" cy="-106" rx="72.99" ry="18"/>
<text text-anchor="middle" x="353" y="-103.5" font-family="Helvetica,sans-Serif" font-size="10.00" fill="#ffffff">hyperparameteroptimizer</text>
</g>
<!-- dpdl_configurationmanager&#45;&gt;dpdl_hyperparameteroptimizer -->
<g id="edge3" class="edge">
<title>dpdl_configurationmanager&#45;&gt;dpdl_hyperparameteroptimizer</title><style>.edge>path:hover{stroke-width:8}</style>
<path fill="none" stroke="black" d="M442.9,-232.15C425.11,-207.39 391.77,-160.97 371.07,-132.16"/>
<polygon fill="#000000" stroke="black" points="373.76,-129.9 365.09,-123.82 368.08,-133.99 373.76,-129.9"/>
</g>
<!-- dpdl_configurationmanager&#45;&gt;dpdl_trainer -->
<g id="edge4" class="edge">
<title>dpdl_configurationmanager&#45;&gt;dpdl_trainer</title><style>.edge>path:hover{stroke-width:8}</style>
<path fill="none" stroke="black" d="M417.13,-235.34C381.2,-222.37 327.77,-203.09 293.66,-190.79"/>
<polygon fill="#000000" stroke="black" points="294.76,-187.46 284.16,-187.36 292.38,-194.04 294.76,-187.46"/>
</g>
<!-- dpdl_datamodules -->
<g id="node4" class="node">
<title>dpdl_datamodules</title><style>.edge>path:hover{stroke-width:8}</style>
<ellipse fill="#ac4949" stroke="black" cx="78" cy="-250" rx="42.27" ry="18"/>
<text text-anchor="middle" x="78" y="-247.5" font-family="Helvetica,sans-Serif" font-size="10.00" fill="#ffffff">datamodules</text>
</g>
<!-- dpdl_datamodules&#45;&gt;dpdl_trainer -->
<g id="edge5" class="edge">
<title>dpdl_datamodules&#45;&gt;dpdl_trainer</title><style>.edge>path:hover{stroke-width:8}</style>
<path fill="none" stroke="black" d="M108.63,-237.28C141.88,-224.57 194.74,-204.34 228.65,-191.37"/>
<polygon fill="#000000" stroke="black" points="230.01,-194.6 238.1,-187.76 227.51,-188.06 230.01,-194.6"/>
</g>
<!-- dpdl_hyperparameteroptimizer&#45;&gt;dpdl_cli -->
<g id="edge6" class="edge">
<title>dpdl_hyperparameteroptimizer&#45;&gt;dpdl_cli</title><style>.edge>path:hover{stroke-width:8}</style>
<path fill="none" stroke="black" d="M341.86,-88.05C336.22,-79.47 329.27,-68.89 323.06,-59.44"/>
<polygon fill="#000000" stroke="black" points="325.82,-57.26 317.4,-50.83 319.97,-61.11 325.82,-57.26"/>
</g>
<!-- dpdl_models -->
<g id="node6" class="node">
<title>dpdl_models</title><style>.edge>path:hover{stroke-width:8}</style>
<ellipse fill="#b65353" stroke="black" cx="258" cy="-250" rx="28.01" ry="18"/>
<text text-anchor="middle" x="258" y="-247.5" font-family="Helvetica,sans-Serif" font-size="10.00" fill="#ffffff">models</text>
</g>
<!-- dpdl_models&#45;&gt;dpdl_trainer -->
<g id="edge7" class="edge">
<title>dpdl_models&#45;&gt;dpdl_trainer</title><style>.edge>path:hover{stroke-width:8}</style>
<path fill="none" stroke="black" d="M258.74,-231.7C259.07,-223.98 259.47,-214.71 259.84,-206.11"/>
<polygon fill="#000000" stroke="black" points="263.34,-206.25 260.27,-196.1 256.34,-205.95 263.34,-206.25"/>
</g>
<!-- dpdl_optimizers -->
<g id="node7" class="node">
<title>dpdl_optimizers</title><style>.edge>path:hover{stroke-width:8}</style>
<ellipse fill="#b65353" stroke="black" cx="175" cy="-250" rx="36.49" ry="18"/>
<text text-anchor="middle" x="175" y="-247.5" font-family="Helvetica,sans-Serif" font-size="10.00" fill="#ffffff">optimizers</text>
</g>
<!-- dpdl_optimizers&#45;&gt;dpdl_trainer -->
<g id="edge8" class="edge">
<title>dpdl_optimizers&#45;&gt;dpdl_trainer</title><style>.edge>path:hover{stroke-width:8}</style>
<path fill="none" stroke="black" d="M193.24,-234.15C205.81,-223.92 222.68,-210.19 236.43,-199"/>
<polygon fill="#000000" stroke="black" points="238.99,-201.43 244.53,-192.4 234.57,-196 238.99,-201.43"/>
</g>
<!-- dpdl_trainer&#45;&gt;dpdl_cli -->
<g id="edge9" class="edge">
<title>dpdl_trainer&#45;&gt;dpdl_cli</title><style>.edge>path:hover{stroke-width:8}</style>
<path fill="none" stroke="black" d="M260.52,-159.71C260.56,-141.35 262.21,-111.77 271,-88 274.88,-77.52 281.26,-67.09 287.58,-58.3"/>
<polygon fill="#000000" stroke="black" points="290.54,-60.2 293.79,-50.11 284.96,-55.97 290.54,-60.2"/>
</g>
<!-- dpdl_trainer&#45;&gt;dpdl_hyperparameteroptimizer -->
<g id="edge10" class="edge">
<title>dpdl_trainer&#45;&gt;dpdl_hyperparameteroptimizer</title><style>.edge>path:hover{stroke-width:8}</style>
<path fill="none" stroke="black" d="M278.3,-163.83C291.04,-154.14 308.66,-140.73 323.59,-129.37"/>
<polygon fill="#000000" stroke="black" points="325.72,-132.15 331.56,-123.31 321.48,-126.58 325.72,-132.15"/>
</g>
<!-- dpdl_utils -->
<g id="node9" class="node">
<title>dpdl_utils</title><style>.edge>path:hover{stroke-width:8}</style>
<ellipse fill="#c24747" stroke="black" cx="60" cy="-322" rx="27" ry="18"/>
<text text-anchor="middle" x="60" y="-319.5" font-family="Helvetica,sans-Serif" font-size="10.00" fill="#ffffff">utils</text>
</g>
<!-- dpdl_utils&#45;&gt;dpdl_cli -->
<g id="edge11" class="edge">
<title>dpdl_utils&#45;&gt;dpdl_cli</title><style>.edge>path:hover{stroke-width:8}</style>
<path fill="none" stroke="black" d="M46.96,-306.03C32.88,-287.95 14.09,-256.86 27,-232 79.79,-130.31 211.84,-70.06 273.85,-46.51"/>
<polygon fill="#000000" stroke="black" points="275.38,-49.67 283.53,-42.91 272.94,-43.11 275.38,-49.67"/>
</g>
<!-- dpdl_utils&#45;&gt;dpdl_datamodules -->
<g id="edge12" class="edge">
<title>dpdl_utils&#45;&gt;dpdl_datamodules</title><style>.edge>path:hover{stroke-width:8}</style>
<path fill="none" stroke="black" d="M64.36,-304.05C66.36,-296.26 68.79,-286.82 71.04,-278.08"/>
<polygon fill="#000000" stroke="black" points="74.46,-278.83 73.56,-268.28 67.68,-277.09 74.46,-278.83"/>
</g>
</g>
</svg>
