<?xml version="1.0" encoding="UTF-8" standalone="no"?>
<!DOCTYPE svg PUBLIC "-//W3C//DTD SVG 1.1//EN"
 "http://www.w3.org/Graphics/SVG/1.1/DTD/svg11.dtd">
<!-- Generated by graphviz version 2.43.0 (0)
 -->
<!-- Title: G Pages: 1 -->
<svg width="650pt" height="611pt"
 viewBox="0.00 0.00 649.61 611.24" xmlns="http://www.w3.org/2000/svg" xmlns:xlink="http://www.w3.org/1999/xlink">
<g id="graph0" class="graph" transform="scale(1 1) rotate(0) translate(4 607.24)">
<title>G</title><style>.edge>path:hover{stroke-width:8}</style>
<polygon fill="white" stroke="transparent" points="-4,4 -4,-607.24 645.61,-607.24 645.61,4 -4,4"/>
<!-- dpdl_callbacks -->
<g id="node1" class="node">
<title>dpdl_callbacks</title><style>.edge>path:hover{stroke-width:8}</style>
<ellipse fill="#b34c4c" stroke="black" cx="78.82" cy="-322.07" rx="46.51" ry="18"/>
<text text-anchor="middle" x="78.82" y="-319.57" font-family="Helvetica,sans-Serif" font-size="10.00" fill="#ffffff">dpdl.callbacks</text>
</g>
<!-- dpdl_trainer -->
<g id="node14" class="node">
<title>dpdl_trainer</title><style>.edge>path:hover{stroke-width:8}</style>
<ellipse fill="#a32828" stroke="black" cx="186.82" cy="-246.85" rx="38.03" ry="18"/>
<text text-anchor="middle" x="186.82" y="-244.35" font-family="Helvetica,sans-Serif" font-size="10.00" fill="#ffffff">dpdl.trainer</text>
</g>
<!-- dpdl_callbacks&#45;&gt;dpdl_trainer -->
<g id="edge1" class="edge">
<title>dpdl_callbacks&#45;&gt;dpdl_trainer</title><style>.edge>path:hover{stroke-width:8}</style>
<path fill="none" stroke="black" d="M100.93,-306.07C117.27,-295 139.67,-279.82 157.49,-267.73"/>
<polygon fill="#b34c4c" stroke="black" points="159.52,-270.59 165.83,-262.08 155.59,-264.79 159.52,-270.59"/>
</g>
<!-- dpdl_cli -->
<g id="node2" class="node">
<title>dpdl_cli</title><style>.edge>path:hover{stroke-width:8}</style>
<ellipse fill="#854747" stroke="black" cx="219.82" cy="-18" rx="27.84" ry="18"/>
<text text-anchor="middle" x="219.82" y="-15.5" font-family="Helvetica,sans-Serif" font-size="10.00" fill="#ffffff">dpdl.cli</text>
</g>
<!-- dpdl_datamodules -->
<g id="node3" class="node">
<title>dpdl_datamodules</title><style>.edge>path:hover{stroke-width:8}</style>
<ellipse fill="#b83d3d" stroke="black" cx="337.82" cy="-322.07" rx="50.82" ry="21.43"/>
<text text-anchor="middle" x="337.82" y="-325.07" font-family="Helvetica,sans-Serif" font-size="10.00" fill="#ffffff">dpdl.</text>
<text text-anchor="middle" x="337.82" y="-314.07" font-family="Helvetica,sans-Serif" font-size="10.00" fill="#ffffff">datamodules</text>
</g>
<!-- dpdl_hyperparameteroptimizer -->
<g id="node5" class="node">
<title>dpdl_hyperparameteroptimizer</title><style>.edge>path:hover{stroke-width:8}</style>
<ellipse fill="#964040" stroke="black" cx="219.82" cy="-93.21" rx="87.86" ry="21.43"/>
<text text-anchor="middle" x="219.82" y="-96.21" font-family="Helvetica,sans-Serif" font-size="10.00" fill="#ffffff">dpdl.</text>
<text text-anchor="middle" x="219.82" y="-85.21" font-family="Helvetica,sans-Serif" font-size="10.00" fill="#ffffff">hyperparameteroptimizer</text>
</g>
<!-- dpdl_datamodules&#45;&gt;dpdl_hyperparameteroptimizer -->
<g id="edge2" class="edge">
<title>dpdl_datamodules&#45;&gt;dpdl_hyperparameteroptimizer</title><style>.edge>path:hover{stroke-width:8}</style>
<path fill="none" stroke="black" d="M368.34,-304.98C387.84,-292.5 410.59,-273.09 416.82,-247.85"/>
<path fill="none" stroke="black" d="M416.82,-245.85C433.63,-177.69 349.55,-134.93 286,-112.81"/>
<polygon fill="#b83d3d" stroke="black" points="286.99,-109.45 276.39,-109.56 284.75,-116.08 286.99,-109.45"/>
</g>
<!-- dpdl_datamodules&#45;&gt;dpdl_trainer -->
<g id="edge3" class="edge">
<title>dpdl_datamodules&#45;&gt;dpdl_trainer</title><style>.edge>path:hover{stroke-width:8}</style>
<path fill="none" stroke="black" d="M305.79,-305.54C281.23,-293.63 247.35,-277.2 222.03,-264.92"/>
<polygon fill="#b83d3d" stroke="black" points="223.3,-261.65 212.78,-260.44 220.25,-267.95 223.3,-261.65"/>
</g>
<!-- dpdl_experimentmanager -->
<g id="node4" class="node">
<title>dpdl_experimentmanager</title><style>.edge>path:hover{stroke-width:8}</style>
<ellipse fill="#b83d3d" stroke="black" cx="103.82" cy="-171.64" rx="72.25" ry="21.43"/>
<text text-anchor="middle" x="103.82" y="-174.64" font-family="Helvetica,sans-Serif" font-size="10.00" fill="#ffffff">dpdl.</text>
<text text-anchor="middle" x="103.82" y="-163.64" font-family="Helvetica,sans-Serif" font-size="10.00" fill="#ffffff">experimentmanager</text>
</g>
<!-- dpdl_experimentmanager&#45;&gt;dpdl_cli -->
<g id="edge4" class="edge">
<title>dpdl_experimentmanager&#45;&gt;dpdl_cli</title><style>.edge>path:hover{stroke-width:8}</style>
<path fill="none" stroke="black" d="M98.75,-150.19C95.89,-134.01 94.5,-111.35 103.82,-94.21"/>
</g>
<!-- dpdl_experimentmanager&#45;&gt;dpdl_hyperparameteroptimizer -->
<g id="edge5" class="edge">
<title>dpdl_experimentmanager&#45;&gt;dpdl_hyperparameteroptimizer</title><style>.edge>path:hover{stroke-width:8}</style>
<path fill="none" stroke="black" d="M132.19,-151.94C147.25,-142.03 165.94,-129.71 182.19,-119"/>
<polygon fill="#b83d3d" stroke="black" points="184.5,-121.67 190.93,-113.25 180.65,-115.83 184.5,-121.67"/>
</g>
<!-- dpdl_hyperparameteroptimizer&#45;&gt;dpdl_cli -->
<g id="edge6" class="edge">
<title>dpdl_hyperparameteroptimizer&#45;&gt;dpdl_cli</title><style>.edge>path:hover{stroke-width:8}</style>
<path fill="none" stroke="black" d="M219.82,-71.82C219.82,-63.97 219.82,-54.86 219.82,-46.45"/>
<polygon fill="#964040" stroke="black" points="223.32,-46.31 219.82,-36.31 216.32,-46.31 223.32,-46.31"/>
</g>
<!-- dpdl_models -->
<g id="node6" class="node">
<title>dpdl_models</title><style>.edge>path:hover{stroke-width:8}</style>
<ellipse fill="#ce3b3b" stroke="black" cx="485.82" cy="-322.07" rx="40.74" ry="18"/>
<text text-anchor="middle" x="485.82" y="-319.57" font-family="Helvetica,sans-Serif" font-size="10.00" fill="#ffffff">dpdl.models</text>
</g>
<!-- dpdl_models&#45;&gt;dpdl_cli -->
<g id="edge7" class="edge">
<title>dpdl_models&#45;&gt;dpdl_cli</title><style>.edge>path:hover{stroke-width:8}</style>
<path fill="none" stroke="black" d="M516.82,-170.64C498.33,-142.15 540.71,-118.36 516.82,-94.21"/>
<path fill="none" stroke="black" d="M516.82,-92.21C480.57,-55.59 328.64,-32.42 257.22,-23.35"/>
<polygon fill="#ce3b3b" stroke="black" points="257.24,-19.83 246.89,-22.07 256.38,-26.78 257.24,-19.83"/>
</g>
<!-- dpdl_models&#45;&gt;dpdl_hyperparameteroptimizer -->
<g id="edge8" class="edge">
<title>dpdl_models&#45;&gt;dpdl_hyperparameteroptimizer</title><style>.edge>path:hover{stroke-width:8}</style>
<path fill="none" stroke="black" d="M496.35,-304.64C513.36,-275.84 542.5,-215.25 516.82,-172.64"/>
<path fill="none" stroke="black" d="M516.82,-170.64C494.06,-135.57 387.47,-114.77 308.46,-103.93"/>
<polygon fill="#ce3b3b" stroke="black" points="308.85,-100.45 298.48,-102.59 307.92,-107.39 308.85,-100.45"/>
</g>
<!-- dpdl_models&#45;&gt;dpdl_trainer -->
<g id="edge9" class="edge">
<title>dpdl_models&#45;&gt;dpdl_trainer</title><style>.edge>path:hover{stroke-width:8}</style>
<path fill="none" stroke="black" d="M451.23,-312.6C396.44,-299.18 289.82,-273.07 230.06,-258.44"/>
<polygon fill="#ce3b3b" stroke="black" points="230.73,-255 220.18,-256.02 229.06,-261.8 230.73,-255"/>
</g>
<!-- dpdl_models_koskela_model -->
<g id="node7" class="node">
<title>dpdl_models_koskela_model</title><style>.edge>path:hover{stroke-width:8}</style>
<ellipse fill="#b65353" stroke="black" cx="175.82" cy="-502.25" rx="57.97" ry="28.98"/>
<text text-anchor="middle" x="175.82" y="-510.75" font-family="Helvetica,sans-Serif" font-size="10.00" fill="#ffffff">dpdl.</text>
<text text-anchor="middle" x="175.82" y="-499.75" font-family="Helvetica,sans-Serif" font-size="10.00" fill="#ffffff">models.</text>
<text text-anchor="middle" x="175.82" y="-488.75" font-family="Helvetica,sans-Serif" font-size="10.00" fill="#ffffff">koskela_model</text>
</g>
<!-- dpdl_models_model_factory -->
<g id="node9" class="node">
<title>dpdl_models_model_factory</title><style>.edge>path:hover{stroke-width:8}</style>
<ellipse fill="#a32828" stroke="black" cx="416.82" cy="-408.27" rx="55.31" ry="28.98"/>
<text text-anchor="middle" x="416.82" y="-416.77" font-family="Helvetica,sans-Serif" font-size="10.00" fill="#ffffff">dpdl.</text>
<text text-anchor="middle" x="416.82" y="-405.77" font-family="Helvetica,sans-Serif" font-size="10.00" fill="#ffffff">models.</text>
<text text-anchor="middle" x="416.82" y="-394.77" font-family="Helvetica,sans-Serif" font-size="10.00" fill="#ffffff">model_factory</text>
</g>
<!-- dpdl_models_koskela_model&#45;&gt;dpdl_models_model_factory -->
<g id="edge10" class="edge">
<title>dpdl_models_koskela_model&#45;&gt;dpdl_models_model_factory</title><style>.edge>path:hover{stroke-width:8}</style>
<path fill="none" stroke="black" d="M219.32,-482.76C227.12,-479.53 235.19,-476.26 242.82,-473.26 282.49,-457.69 327.68,-441.1 362.06,-428.72"/>
<polygon fill="#b65353" stroke="black" points="363.69,-431.86 371.91,-425.18 361.32,-425.27 363.69,-431.86"/>
</g>
<!-- dpdl_models_model_base -->
<g id="node8" class="node">
<title>dpdl_models_model_base</title><style>.edge>path:hover{stroke-width:8}</style>
<ellipse fill="#b65353" stroke="black" cx="300.82" cy="-502.25" rx="48.58" ry="28.98"/>
<text text-anchor="middle" x="300.82" y="-510.75" font-family="Helvetica,sans-Serif" font-size="10.00" fill="#ffffff">dpdl.</text>
<text text-anchor="middle" x="300.82" y="-499.75" font-family="Helvetica,sans-Serif" font-size="10.00" fill="#ffffff">models.</text>
<text text-anchor="middle" x="300.82" y="-488.75" font-family="Helvetica,sans-Serif" font-size="10.00" fill="#ffffff">model_base</text>
</g>
<!-- dpdl_models_model_base&#45;&gt;dpdl_models_model_factory -->
<g id="edge11" class="edge">
<title>dpdl_models_model_base&#45;&gt;dpdl_models_model_factory</title><style>.edge>path:hover{stroke-width:8}</style>
<path fill="none" stroke="black" d="M329.49,-478.52C344.35,-466.74 362.68,-452.2 378.71,-439.49"/>
<polygon fill="#b65353" stroke="black" points="381.19,-441.99 386.86,-433.03 376.84,-436.5 381.19,-441.99"/>
</g>
<!-- dpdl_models_model_factory&#45;&gt;dpdl_cli -->
<g id="edge12" class="edge">
<title>dpdl_models_model_factory&#45;&gt;dpdl_cli</title><style>.edge>path:hover{stroke-width:8}</style>
<path fill="none" stroke="black" d="M465.37,-394.38C491.13,-384.8 520.53,-368.85 535.82,-343.28 592.77,-247.98 594.91,-173.12 516.82,-94.21"/>
</g>
<!-- dpdl_models_model_factory&#45;&gt;dpdl_hyperparameteroptimizer -->
<g id="edge13" class="edge">
<title>dpdl_models_model_factory&#45;&gt;dpdl_hyperparameteroptimizer</title><style>.edge>path:hover{stroke-width:8}</style>
<path fill="none" stroke="black" d="M415.73,-379.02C414.76,-347.12 413.9,-293.7 416.82,-247.85"/>
</g>
<!-- dpdl_models_model_factory&#45;&gt;dpdl_trainer -->
<g id="edge14" class="edge">
<title>dpdl_models_model_factory&#45;&gt;dpdl_trainer</title><style>.edge>path:hover{stroke-width:8}</style>
<path fill="none" stroke="black" d="M371.39,-391.81C342.93,-380.84 306.35,-364.34 277.82,-343.28 257.45,-328.25 257.22,-319.24 239.82,-300.85 230.22,-290.71 219.35,-279.76 209.97,-270.46"/>
<polygon fill="#a32828" stroke="black" points="212.39,-267.93 202.82,-263.4 207.48,-272.91 212.39,-267.93"/>
</g>
<!-- dpdl_models_timm_model -->
<g id="node10" class="node">
<title>dpdl_models_timm_model</title><style>.edge>path:hover{stroke-width:8}</style>
<ellipse fill="#b65353" stroke="black" cx="416.82" cy="-502.25" rx="49.49" ry="28.98"/>
<text text-anchor="middle" x="416.82" y="-510.75" font-family="Helvetica,sans-Serif" font-size="10.00" fill="#ffffff">dpdl.</text>
<text text-anchor="middle" x="416.82" y="-499.75" font-family="Helvetica,sans-Serif" font-size="10.00" fill="#ffffff">models.</text>
<text text-anchor="middle" x="416.82" y="-488.75" font-family="Helvetica,sans-Serif" font-size="10.00" fill="#ffffff">timm_model</text>
</g>
<!-- dpdl_models_timm_model&#45;&gt;dpdl_models_model_factory -->
<g id="edge15" class="edge">
<title>dpdl_models_timm_model&#45;&gt;dpdl_models_model_factory</title><style>.edge>path:hover{stroke-width:8}</style>
<path fill="none" stroke="black" d="M416.82,-473.16C416.82,-465.12 416.82,-456.22 416.82,-447.67"/>
<polygon fill="#b65353" stroke="black" points="420.32,-447.51 416.82,-437.51 413.32,-447.51 420.32,-447.51"/>
</g>
<!-- dpdl_models_wide_resnet -->
<g id="node11" class="node">
<title>dpdl_models_wide_resnet</title><style>.edge>path:hover{stroke-width:8}</style>
<ellipse fill="#b65353" stroke="black" cx="532.82" cy="-502.25" rx="48.58" ry="28.98"/>
<text text-anchor="middle" x="532.82" y="-510.75" font-family="Helvetica,sans-Serif" font-size="10.00" fill="#ffffff">dpdl.</text>
<text text-anchor="middle" x="532.82" y="-499.75" font-family="Helvetica,sans-Serif" font-size="10.00" fill="#ffffff">models.</text>
<text text-anchor="middle" x="532.82" y="-488.75" font-family="Helvetica,sans-Serif" font-size="10.00" fill="#ffffff">wide_resnet</text>
</g>
<!-- dpdl_models_wide_resnet&#45;&gt;dpdl_models_model_factory -->
<g id="edge16" class="edge">
<title>dpdl_models_wide_resnet&#45;&gt;dpdl_models_model_factory</title><style>.edge>path:hover{stroke-width:8}</style>
<path fill="none" stroke="black" d="M504.14,-478.52C489.29,-466.74 470.95,-452.2 454.92,-439.49"/>
<polygon fill="#b65353" stroke="black" points="456.79,-436.5 446.78,-433.03 452.44,-441.99 456.79,-436.5"/>
</g>
<!-- dpdl_optimizers -->
<g id="node12" class="node">
<title>dpdl_optimizers</title><style>.edge>path:hover{stroke-width:8}</style>
<ellipse fill="#b65353" stroke="black" cx="186.82" cy="-322.07" rx="43.68" ry="21.43"/>
<text text-anchor="middle" x="186.82" y="-325.07" font-family="Helvetica,sans-Serif" font-size="10.00" fill="#ffffff">dpdl.</text>
<text text-anchor="middle" x="186.82" y="-314.07" font-family="Helvetica,sans-Serif" font-size="10.00" fill="#ffffff">optimizers</text>
</g>
<!-- dpdl_optimizers&#45;&gt;dpdl_trainer -->
<g id="edge17" class="edge">
<title>dpdl_optimizers&#45;&gt;dpdl_trainer</title><style>.edge>path:hover{stroke-width:8}</style>
<path fill="none" stroke="black" d="M186.82,-300.67C186.82,-292.82 186.82,-283.72 186.82,-275.3"/>
<polygon fill="#b65353" stroke="black" points="190.32,-275.16 186.82,-265.16 183.32,-275.16 190.32,-275.16"/>
</g>
<!-- dpdl_peft -->
<g id="node13" class="node">
<title>dpdl_peft</title><style>.edge>path:hover{stroke-width:8}</style>
<ellipse fill="#b65353" stroke="black" cx="609.82" cy="-585.24" rx="31.58" ry="18"/>
<text text-anchor="middle" x="609.82" y="-582.74" font-family="Helvetica,sans-Serif" font-size="10.00" fill="#ffffff">dpdl.peft</text>
</g>
<!-- dpdl_peft&#45;&gt;dpdl_models_model_factory -->
<g id="edge18" class="edge">
<title>dpdl_peft&#45;&gt;dpdl_models_model_factory</title><style>.edge>path:hover{stroke-width:8}</style>
<path fill="none" stroke="black" d="M611.8,-567.06C613.56,-543.22 613.07,-500.01 590.82,-473.26 563.61,-440.56 518.1,-424.56 480.45,-416.75"/>
<polygon fill="#b65353" stroke="black" points="481.05,-413.3 470.57,-414.84 479.72,-420.17 481.05,-413.3"/>
</g>
<!-- dpdl_trainer&#45;&gt;dpdl_cli -->
<g id="edge19" class="edge">
<title>dpdl_trainer&#45;&gt;dpdl_cli</title><style>.edge>path:hover{stroke-width:8}</style>
<path fill="none" stroke="black" d="M194.27,-229.15C199.99,-214.42 206.48,-192.29 203.82,-172.64"/>
<path fill="none" stroke="black" d="M203.82,-170.64C196.31,-115.21 77.11,-143.36 103.82,-94.21"/>
</g>
<!-- dpdl_trainer&#45;&gt;dpdl_experimentmanager -->
<g id="edge20" class="edge">
<title>dpdl_trainer&#45;&gt;dpdl_experimentmanager</title><style>.edge>path:hover{stroke-width:8}</style>
<path fill="none" stroke="black" d="M169.62,-230.68C159.18,-221.48 145.57,-209.47 133.45,-198.77"/>
<polygon fill="#a32828" stroke="black" points="135.55,-195.96 125.74,-191.97 130.92,-201.21 135.55,-195.96"/>
</g>
<!-- dpdl_trainer&#45;&gt;dpdl_hyperparameteroptimizer -->
<g id="edge21" class="edge">
<title>dpdl_trainer&#45;&gt;dpdl_hyperparameteroptimizer</title><style>.edge>path:hover{stroke-width:8}</style>
<path fill="none" stroke="black" d="M203.82,-170.64C201.72,-155.18 204.74,-138.18 208.71,-124.14"/>
<polygon fill="#a32828" stroke="black" points="212.07,-125.1 211.7,-114.51 205.39,-123.02 212.07,-125.1"/>
</g>
<!-- dpdl_utils -->
<g id="node15" class="node">
<title>dpdl_utils</title><style>.edge>path:hover{stroke-width:8}</style>
<ellipse fill="#e72222" stroke="black" cx="78.82" cy="-408.27" rx="32.93" ry="18"/>
<text text-anchor="middle" x="78.82" y="-405.77" font-family="Helvetica,sans-Serif" font-size="10.00" fill="#ffffff">dpdl.utils</text>
</g>
<!-- dpdl_utils&#45;&gt;dpdl_callbacks -->
<g id="edge22" class="edge">
<title>dpdl_utils&#45;&gt;dpdl_callbacks</title><style>.edge>path:hover{stroke-width:8}</style>
<path fill="none" stroke="black" d="M78.82,-390.23C78.82,-378.82 78.82,-363.54 78.82,-350.44"/>
<polygon fill="#e72222" stroke="black" points="82.32,-350.08 78.82,-340.08 75.32,-350.08 82.32,-350.08"/>
</g>
<!-- dpdl_utils&#45;&gt;dpdl_cli -->
<g id="edge23" class="edge">
<title>dpdl_utils&#45;&gt;dpdl_cli</title><style>.edge>path:hover{stroke-width:8}</style>
<path fill="none" stroke="black" d="M56.1,-395.12C33.06,-380.93 1.13,-355.26 3.82,-323.07"/>
<path fill="none" stroke="black" d="M3.82,-321.07C6.53,-288.64 -5.59,-279 3.82,-247.85"/>
<path fill="none" stroke="black" d="M3.82,-245.85C16.32,-204.46 -0.89,-186.59 22.82,-150.43 46.84,-113.78 82.89,-132.72 103.82,-94.21"/>
<path fill="none" stroke="black" d="M103.82,-92.21C120.13,-60.12 157.63,-40.4 185.6,-29.63"/>
<polygon fill="#e72222" stroke="black" points="186.85,-32.9 195.05,-26.19 184.46,-26.32 186.85,-32.9"/>
</g>
<!-- dpdl_utils&#45;&gt;dpdl_datamodules -->
<g id="edge24" class="edge">
<title>dpdl_utils&#45;&gt;dpdl_datamodules</title><style>.edge>path:hover{stroke-width:8}</style>
<path fill="none" stroke="black" d="M106.54,-398.26C150.02,-384.12 234.89,-356.53 288.84,-338.99"/>
<polygon fill="#e72222" stroke="black" points="290.11,-342.26 298.53,-335.84 287.94,-335.6 290.11,-342.26"/>
</g>
<!-- dpdl_utils&#45;&gt;dpdl_experimentmanager -->
<g id="edge25" class="edge">
<title>dpdl_utils&#45;&gt;dpdl_experimentmanager</title><style>.edge>path:hover{stroke-width:8}</style>
<path fill="none" stroke="black" d="M3.82,-245.85C10.92,-222.33 31.58,-205.23 52.3,-193.5"/>
<polygon fill="#e72222" stroke="black" points="53.95,-196.58 61.14,-188.79 50.66,-190.4 53.95,-196.58"/>
</g>
<!-- dpdl_utils&#45;&gt;dpdl_trainer -->
<g id="edge26" class="edge">
<title>dpdl_utils&#45;&gt;dpdl_trainer</title><style>.edge>path:hover{stroke-width:8}</style>
<path fill="none" stroke="black" d="M3.82,-321.07C8.6,-263.84 85.75,-250.18 138.33,-247.56"/>
<polygon fill="#e72222" stroke="black" points="138.63,-251.05 148.49,-247.17 138.37,-244.06 138.63,-251.05"/>
</g>
</g>
</svg>
