<?xml version="1.0" encoding="UTF-8" standalone="no"?>
<!DOCTYPE svg PUBLIC "-//W3C//DTD SVG 1.1//EN"
 "http://www.w3.org/Graphics/SVG/1.1/DTD/svg11.dtd">
<!-- Generated by graphviz version 2.43.0 (0)
 -->
<!-- Title: G Pages: 1 -->
<svg width="476pt" height="387pt"
 viewBox="0.00 0.00 476.00 387.00" xmlns="http://www.w3.org/2000/svg" xmlns:xlink="http://www.w3.org/1999/xlink">
<g id="graph0" class="graph" transform="scale(1 1) rotate(0) translate(4 383)">
<title>G</title><style>.edge>path:hover{stroke-width:8}</style>
<polygon fill="white" stroke="transparent" points="-4,4 -4,-383 472,-383 472,4 -4,4"/>
<g id="clust1" class="cluster">
<title>cluster_dpdl</title><style>.edge>path:hover{stroke-width:8}</style>
<polygon fill="none" stroke="black" points="8,-8 8,-371 460,-371 460,-8 8,-8"/>
<text text-anchor="middle" x="234" y="-355.8" font-family="Times,serif" font-size="14.00">dpdl</text>
</g>
<!-- dpdl_callbacks -->
<g id="node1" class="node">
<title>dpdl_callbacks</title><style>.edge>path:hover{stroke-width:8}</style>
<ellipse fill="#b34c4c" stroke="black" cx="173" cy="-250" rx="34.29" ry="18"/>
<text text-anchor="middle" x="173" y="-247.5" font-family="Helvetica,sans-Serif" font-size="10.00" fill="#ffffff">callbacks</text>
</g>
<!-- dpdl_trainer -->
<g id="node9" class="node">
<title>dpdl_trainer</title><style>.edge>path:hover{stroke-width:8}</style>
<ellipse fill="#a13535" stroke="black" cx="253" cy="-178" rx="27" ry="18"/>
<text text-anchor="middle" x="253" y="-175.5" font-family="Helvetica,sans-Serif" font-size="10.00" fill="#ffffff">trainer</text>
</g>
<!-- dpdl_callbacks&#45;&gt;dpdl_trainer -->
<g id="edge1" class="edge">
<title>dpdl_callbacks&#45;&gt;dpdl_trainer</title><style>.edge>path:hover{stroke-width:8}</style>
<path fill="none" stroke="black" d="M189.97,-234.15C201.4,-224.15 216.65,-210.8 229.29,-199.75"/>
<polygon fill="#000000" stroke="black" points="231.93,-202.09 237.15,-192.87 227.32,-196.82 231.93,-202.09"/>
</g>
<!-- dpdl_cli -->
<g id="node2" class="node">
<title>dpdl_cli</title><style>.edge>path:hover{stroke-width:8}</style>
<ellipse fill="#8b4b4b" stroke="black" cx="310" cy="-34" rx="27" ry="18"/>
<text text-anchor="middle" x="310" y="-31.5" font-family="Helvetica,sans-Serif" font-size="10.00" fill="#ffffff">cli</text>
</g>
<!-- dpdl_configurationmanager -->
<g id="node3" class="node">
<title>dpdl_configurationmanager</title><style>.edge>path:hover{stroke-width:8}</style>
<ellipse fill="#f91010" stroke="black" cx="361" cy="-322" rx="64.51" ry="18"/>
<text text-anchor="middle" x="361" y="-319.5" font-family="Helvetica,sans-Serif" font-size="10.00" fill="#ffffff">configurationmanager</text>
</g>
<!-- dpdl_configurationmanager&#45;&gt;dpdl_callbacks -->
<g id="edge2" class="edge">
<title>dpdl_configurationmanager&#45;&gt;dpdl_callbacks</title><style>.edge>path:hover{stroke-width:8}</style>
<path fill="none" stroke="black" d="M322.74,-307.32C293.44,-296.78 252.07,-281.72 216,-268 213.64,-267.1 211.2,-266.17 208.75,-265.22"/>
<polygon fill="#000000" stroke="black" points="209.92,-261.92 199.34,-261.54 207.38,-268.44 209.92,-261.92"/>
</g>
<!-- dpdl_configurationmanager&#45;&gt;dpdl_cli -->
<g id="edge3" class="edge">
<title>dpdl_configurationmanager&#45;&gt;dpdl_cli</title><style>.edge>path:hover{stroke-width:8}</style>
<path fill="none" stroke="black" d="M385.29,-305.26C397.97,-295.87 412.73,-282.89 422,-268 447.75,-226.62 453.47,-207.11 441,-160 431.57,-124.4 425.85,-114.23 400,-88 383.42,-71.17 360.4,-57.75 341.8,-48.62"/>
<polygon fill="#000000" stroke="black" points="343.06,-45.34 332.53,-44.24 340.07,-51.67 343.06,-45.34"/>
</g>
<!-- dpdl_datamodules -->
<g id="node4" class="node">
<title>dpdl_datamodules</title><style>.edge>path:hover{stroke-width:8}</style>
<ellipse fill="#a44646" stroke="black" cx="78" cy="-250" rx="42.27" ry="18"/>
<text text-anchor="middle" x="78" y="-247.5" font-family="Helvetica,sans-Serif" font-size="10.00" fill="#ffffff">datamodules</text>
</g>
<!-- dpdl_configurationmanager&#45;&gt;dpdl_datamodules -->
<g id="edge4" class="edge">
<title>dpdl_configurationmanager&#45;&gt;dpdl_datamodules</title><style>.edge>path:hover{stroke-width:8}</style>
<path fill="none" stroke="black" d="M310.2,-310.73C263.17,-300.89 191.45,-285.06 130,-268 126.65,-267.07 123.19,-266.06 119.73,-265.01"/>
<polygon fill="#000000" stroke="black" points="120.63,-261.62 110.04,-261.98 118.54,-268.3 120.63,-261.62"/>
</g>
<!-- dpdl_hyperparameteroptimizer -->
<g id="node5" class="node">
<title>dpdl_hyperparameteroptimizer</title><style>.edge>path:hover{stroke-width:8}</style>
<ellipse fill="#ac4949" stroke="black" cx="310" cy="-106" rx="72.99" ry="18"/>
<text text-anchor="middle" x="310" y="-103.5" font-family="Helvetica,sans-Serif" font-size="10.00" fill="#ffffff">hyperparameteroptimizer</text>
</g>
<!-- dpdl_configurationmanager&#45;&gt;dpdl_hyperparameteroptimizer -->
<g id="edge5" class="edge">
<title>dpdl_configurationmanager&#45;&gt;dpdl_hyperparameteroptimizer</title><style>.edge>path:hover{stroke-width:8}</style>
<path fill="none" stroke="black" d="M373.88,-304.19C386.33,-285.73 401.61,-255.56 389,-232 375.39,-206.57 351.95,-219.34 335,-196 321.85,-177.9 315.61,-153.12 312.65,-134.3"/>
<polygon fill="#000000" stroke="black" points="316.1,-133.71 311.29,-124.27 309.17,-134.65 316.1,-133.71"/>
</g>
<!-- dpdl_logger_config -->
<g id="node6" class="node">
<title>dpdl_logger_config</title><style>.edge>path:hover{stroke-width:8}</style>
<ellipse fill="#b34c4c" stroke="black" cx="388" cy="-178" rx="43.62" ry="18"/>
<text text-anchor="middle" x="388" y="-175.5" font-family="Helvetica,sans-Serif" font-size="10.00" fill="#ffffff">logger_config</text>
</g>
<!-- dpdl_configurationmanager&#45;&gt;dpdl_logger_config -->
<g id="edge6" class="edge">
<title>dpdl_configurationmanager&#45;&gt;dpdl_logger_config</title><style>.edge>path:hover{stroke-width:8}</style>
<path fill="none" stroke="black" d="M384.94,-305.1C396.67,-295.83 409.62,-283.01 416,-268 424.9,-247.05 415.6,-222.29 405.39,-204.21"/>
<polygon fill="#000000" stroke="black" points="408.24,-202.16 400.06,-195.42 402.25,-205.78 408.24,-202.16"/>
</g>
<!-- dpdl_models -->
<g id="node7" class="node">
<title>dpdl_models</title><style>.edge>path:hover{stroke-width:8}</style>
<ellipse fill="#b34c4c" stroke="black" cx="253" cy="-250" rx="28.01" ry="18"/>
<text text-anchor="middle" x="253" y="-247.5" font-family="Helvetica,sans-Serif" font-size="10.00" fill="#ffffff">models</text>
</g>
<!-- dpdl_configurationmanager&#45;&gt;dpdl_models -->
<g id="edge7" class="edge">
<title>dpdl_configurationmanager&#45;&gt;dpdl_models</title><style>.edge>path:hover{stroke-width:8}</style>
<path fill="none" stroke="black" d="M336.76,-305.29C320.13,-294.51 298.03,-280.18 280.7,-268.95"/>
<polygon fill="#000000" stroke="black" points="282.43,-265.9 272.13,-263.4 278.62,-271.78 282.43,-265.9"/>
</g>
<!-- dpdl_optimizers -->
<g id="node8" class="node">
<title>dpdl_optimizers</title><style>.edge>path:hover{stroke-width:8}</style>
<ellipse fill="#b34c4c" stroke="black" cx="336" cy="-250" rx="36.49" ry="18"/>
<text text-anchor="middle" x="336" y="-247.5" font-family="Helvetica,sans-Serif" font-size="10.00" fill="#ffffff">optimizers</text>
</g>
<!-- dpdl_configurationmanager&#45;&gt;dpdl_optimizers -->
<g id="edge8" class="edge">
<title>dpdl_configurationmanager&#45;&gt;dpdl_optimizers</title><style>.edge>path:hover{stroke-width:8}</style>
<path fill="none" stroke="black" d="M354.95,-304.05C352.09,-296.06 348.62,-286.33 345.43,-277.4"/>
<polygon fill="#000000" stroke="black" points="348.66,-276.03 342,-267.79 342.06,-278.38 348.66,-276.03"/>
</g>
<!-- dpdl_configurationmanager&#45;&gt;dpdl_trainer -->
<g id="edge9" class="edge">
<title>dpdl_configurationmanager&#45;&gt;dpdl_trainer</title><style>.edge>path:hover{stroke-width:8}</style>
<path fill="none" stroke="black" d="M371.9,-304.18C382.71,-285.16 395.69,-253.99 381,-232 370.11,-215.71 321.24,-198.69 287.14,-188.46"/>
<polygon fill="#000000" stroke="black" points="288.11,-185.1 277.53,-185.64 286.14,-191.82 288.11,-185.1"/>
</g>
<!-- dpdl_datamodules&#45;&gt;dpdl_trainer -->
<g id="edge10" class="edge">
<title>dpdl_datamodules&#45;&gt;dpdl_trainer</title><style>.edge>path:hover{stroke-width:8}</style>
<path fill="none" stroke="black" d="M107.69,-237.13C139.15,-224.54 188.66,-204.74 220.98,-191.81"/>
<polygon fill="#000000" stroke="black" points="222.43,-195 230.42,-188.03 219.83,-188.5 222.43,-195"/>
</g>
<!-- dpdl_hyperparameteroptimizer&#45;&gt;dpdl_cli -->
<g id="edge11" class="edge">
<title>dpdl_hyperparameteroptimizer&#45;&gt;dpdl_cli</title><style>.edge>path:hover{stroke-width:8}</style>
<path fill="none" stroke="black" d="M310,-87.7C310,-79.98 310,-70.71 310,-62.11"/>
<polygon fill="#000000" stroke="black" points="313.5,-62.1 310,-52.1 306.5,-62.1 313.5,-62.1"/>
</g>
<!-- dpdl_logger_config&#45;&gt;dpdl_cli -->
<g id="edge12" class="edge">
<title>dpdl_logger_config&#45;&gt;dpdl_cli</title><style>.edge>path:hover{stroke-width:8}</style>
<path fill="none" stroke="black" d="M393.69,-160.1C398.95,-141.28 404.28,-110.55 392,-88 381.61,-68.91 361.05,-55.64 343.11,-47.16"/>
<polygon fill="#000000" stroke="black" points="344.07,-43.75 333.5,-42.93 341.25,-50.16 344.07,-43.75"/>
</g>
<!-- dpdl_models&#45;&gt;dpdl_trainer -->
<g id="edge13" class="edge">
<title>dpdl_models&#45;&gt;dpdl_trainer</title><style>.edge>path:hover{stroke-width:8}</style>
<path fill="none" stroke="black" d="M253,-231.7C253,-223.98 253,-214.71 253,-206.11"/>
<polygon fill="#000000" stroke="black" points="256.5,-206.1 253,-196.1 249.5,-206.1 256.5,-206.1"/>
</g>
<!-- dpdl_optimizers&#45;&gt;dpdl_trainer -->
<g id="edge14" class="edge">
<title>dpdl_optimizers&#45;&gt;dpdl_trainer</title><style>.edge>path:hover{stroke-width:8}</style>
<path fill="none" stroke="black" d="M318.4,-234.15C306.34,-223.98 290.2,-210.37 276.97,-199.21"/>
<polygon fill="#000000" stroke="black" points="279.07,-196.41 269.17,-192.64 274.56,-201.76 279.07,-196.41"/>
</g>
<!-- dpdl_trainer&#45;&gt;dpdl_cli -->
<g id="edge15" class="edge">
<title>dpdl_trainer&#45;&gt;dpdl_cli</title><style>.edge>path:hover{stroke-width:8}</style>
<path fill="none" stroke="black" d="M241.81,-161.4C230.08,-142.98 215.03,-111.82 228,-88 238.39,-68.91 258.95,-55.64 276.89,-47.16"/>
<polygon fill="#000000" stroke="black" points="278.75,-50.16 286.5,-42.93 275.93,-43.75 278.75,-50.16"/>
</g>
<!-- dpdl_trainer&#45;&gt;dpdl_hyperparameteroptimizer -->
<g id="edge16" class="edge">
<title>dpdl_trainer&#45;&gt;dpdl_hyperparameteroptimizer</title><style>.edge>path:hover{stroke-width:8}</style>
<path fill="none" stroke="black" d="M265.37,-161.81C272.43,-153.14 281.46,-142.05 289.55,-132.12"/>
<polygon fill="#000000" stroke="black" points="292.45,-134.09 296.05,-124.13 287.03,-129.67 292.45,-134.09"/>
</g>
<!-- dpdl_utils -->
<g id="node10" class="node">
<title>dpdl_utils</title><style>.edge>path:hover{stroke-width:8}</style>
<ellipse fill="#c24747" stroke="black" cx="61" cy="-322" rx="27" ry="18"/>
<text text-anchor="middle" x="61" y="-319.5" font-family="Helvetica,sans-Serif" font-size="10.00" fill="#ffffff">utils</text>
</g>
<!-- dpdl_utils&#45;&gt;dpdl_cli -->
<g id="edge17" class="edge">
<title>dpdl_utils&#45;&gt;dpdl_cli</title><style>.edge>path:hover{stroke-width:8}</style>
<path fill="none" stroke="black" d="M47.81,-306.13C33.54,-288.14 14.42,-257.15 27,-232 78.71,-128.57 213.51,-69.07 276.57,-46.09"/>
<polygon fill="#000000" stroke="black" points="277.8,-49.36 286.05,-42.71 275.45,-42.77 277.8,-49.36"/>
</g>
<!-- dpdl_utils&#45;&gt;dpdl_datamodules -->
<g id="edge18" class="edge">
<title>dpdl_utils&#45;&gt;dpdl_datamodules</title><style>.edge>path:hover{stroke-width:8}</style>
<path fill="none" stroke="black" d="M65.12,-304.05C67.01,-296.26 69.3,-286.82 71.42,-278.08"/>
<polygon fill="#000000" stroke="black" points="74.85,-278.82 73.8,-268.28 68.04,-277.17 74.85,-278.82"/>
</g>
</g>
</svg>
