<?xml version="1.0" encoding="UTF-8" standalone="no"?>
<!DOCTYPE svg PUBLIC "-//W3C//DTD SVG 1.1//EN"
 "http://www.w3.org/Graphics/SVG/1.1/DTD/svg11.dtd">
<!-- Generated by graphviz version 2.43.0 (0)
 -->
<!-- Title: G Pages: 1 -->
<svg width="735pt" height="633pt"
 viewBox="0.00 0.00 734.72 632.85" xmlns="http://www.w3.org/2000/svg" xmlns:xlink="http://www.w3.org/1999/xlink">
<g id="graph0" class="graph" transform="scale(1 1) rotate(0) translate(4 628.85)">
<title>G</title><style>.edge>path:hover{stroke-width:8}</style>
<polygon fill="white" stroke="transparent" points="-4,4 -4,-628.85 730.72,-628.85 730.72,4 -4,4"/>
<!-- dpdl_callbacks -->
<g id="node1" class="node">
<title>dpdl_callbacks</title><style>.edge>path:hover{stroke-width:8}</style>
<ellipse fill="#b65353" stroke="black" cx="374.74" cy="-306" rx="34.29" ry="18"/>
<text text-anchor="middle" x="374.74" y="-303.5" font-family="Helvetica,sans-Serif" font-size="10.00" fill="#ffffff">callbacks</text>
</g>
<!-- dpdl_trainer -->
<g id="node13" class="node">
<title>dpdl_trainer</title><style>.edge>path:hover{stroke-width:8}</style>
<ellipse fill="#a32828" stroke="black" cx="312.74" cy="-234" rx="27" ry="18"/>
<text text-anchor="middle" x="312.74" y="-231.5" font-family="Helvetica,sans-Serif" font-size="10.00" fill="#ffffff">trainer</text>
</g>
<!-- dpdl_callbacks&#45;&gt;dpdl_trainer -->
<g id="edge1" class="edge">
<title>dpdl_callbacks&#45;&gt;dpdl_trainer</title><style>.edge>path:hover{stroke-width:8}</style>
<path fill="none" stroke="black" d="M360.98,-289.46C352.68,-280.09 341.96,-267.99 332.73,-257.57"/>
<polygon fill="#b65353" stroke="black" points="335.29,-255.18 326.04,-250.01 330.05,-259.82 335.29,-255.18"/>
</g>
<!-- dpdl_cli -->
<g id="node2" class="node">
<title>dpdl_cli</title><style>.edge>path:hover{stroke-width:8}</style>
<ellipse fill="#854747" stroke="black" cx="288.74" cy="-18" rx="27" ry="18"/>
<text text-anchor="middle" x="288.74" y="-15.5" font-family="Helvetica,sans-Serif" font-size="10.00" fill="#ffffff">cli</text>
</g>
<!-- dpdl_configurationmanager -->
<g id="node3" class="node">
<title>dpdl_configurationmanager</title><style>.edge>path:hover{stroke-width:8}</style>
<ellipse fill="#f91010" stroke="black" cx="446.74" cy="-606.85" rx="64.51" ry="18"/>
<text text-anchor="middle" x="446.74" y="-604.35" font-family="Helvetica,sans-Serif" font-size="10.00" fill="#ffffff">configurationmanager</text>
</g>
<!-- dpdl_configurationmanager&#45;&gt;dpdl_cli -->
<g id="edge2" class="edge">
<title>dpdl_configurationmanager&#45;&gt;dpdl_cli</title><style>.edge>path:hover{stroke-width:8}</style>
<path fill="none" stroke="black" d="M392.41,-596.82C361.07,-589.36 322.5,-576.07 294.74,-552.85 258.65,-522.67 260.55,-504.19 242.74,-460.64"/>
<path fill="none" stroke="black" d="M242.74,-458.64C211.67,-415.3 173.46,-441.09 136.74,-402.43 80.21,-342.9 62.15,-317.02 58.74,-235"/>
<path fill="none" stroke="black" d="M58.74,-233C54.01,-195.06 22.99,-198.48 8.74,-163"/>
<path fill="none" stroke="black" d="M8.74,-161C-2.86,-132.13 -2.95,-119.83 8.74,-91"/>
<path fill="none" stroke="black" d="M8.74,-89C27.09,-43.75 179.82,-26.82 251.66,-21.33"/>
<polygon fill="#f91010" stroke="black" points="251.92,-24.81 261.64,-20.59 251.41,-17.83 251.92,-24.81"/>
</g>
<!-- dpdl_datamodules -->
<g id="node4" class="node">
<title>dpdl_datamodules</title><style>.edge>path:hover{stroke-width:8}</style>
<ellipse fill="#b03a3a" stroke="black" cx="242.74" cy="-306" rx="42.27" ry="18"/>
<text text-anchor="middle" x="242.74" y="-303.5" font-family="Helvetica,sans-Serif" font-size="10.00" fill="#ffffff">datamodules</text>
</g>
<!-- dpdl_configurationmanager&#45;&gt;dpdl_datamodules -->
<g id="edge3" class="edge">
<title>dpdl_configurationmanager&#45;&gt;dpdl_datamodules</title><style>.edge>path:hover{stroke-width:8}</style>
<path fill="none" stroke="black" d="M242.74,-380.21C241.48,-365.12 241.39,-348.22 241.66,-334.46"/>
<polygon fill="#f91010" stroke="black" points="245.16,-334.28 241.93,-324.19 238.17,-334.1 245.16,-334.28"/>
</g>
<!-- dpdl_experimentmanager -->
<g id="node5" class="node">
<title>dpdl_experimentmanager</title><style>.edge>path:hover{stroke-width:8}</style>
<ellipse fill="#b03a3a" stroke="black" cx="96.74" cy="-162" rx="60.09" ry="18"/>
<text text-anchor="middle" x="96.74" y="-159.5" font-family="Helvetica,sans-Serif" font-size="10.00" fill="#ffffff">experimentmanager</text>
</g>
<!-- dpdl_configurationmanager&#45;&gt;dpdl_experimentmanager -->
<g id="edge4" class="edge">
<title>dpdl_configurationmanager&#45;&gt;dpdl_experimentmanager</title><style>.edge>path:hover{stroke-width:8}</style>
<path fill="none" stroke="black" d="M58.74,-233C58.06,-216.61 66.17,-200.38 75.07,-187.68"/>
<polygon fill="#f91010" stroke="black" points="78.02,-189.58 81.26,-179.49 72.43,-185.36 78.02,-189.58"/>
</g>
<!-- dpdl_hyperparameteroptimizer -->
<g id="node6" class="node">
<title>dpdl_hyperparameteroptimizer</title><style>.edge>path:hover{stroke-width:8}</style>
<ellipse fill="#964040" stroke="black" cx="288.74" cy="-90" rx="72.99" ry="18"/>
<text text-anchor="middle" x="288.74" y="-87.5" font-family="Helvetica,sans-Serif" font-size="10.00" fill="#ffffff">hyperparameteroptimizer</text>
</g>
<!-- dpdl_configurationmanager&#45;&gt;dpdl_hyperparameteroptimizer -->
<g id="edge5" class="edge">
<title>dpdl_configurationmanager&#45;&gt;dpdl_hyperparameteroptimizer</title><style>.edge>path:hover{stroke-width:8}</style>
<path fill="none" stroke="black" d="M242.74,-458.64C229.89,-427.2 245.57,-416.06 242.74,-382.21"/>
<path fill="none" stroke="black" d="M242.74,-380.21C239.93,-346.6 203.89,-355.47 191.74,-324 185.98,-309.07 185.76,-302.84 191.74,-288 203.96,-257.68 232.4,-266.01 242.74,-235"/>
<path fill="none" stroke="black" d="M242.74,-233C250.11,-191.65 266.59,-145.73 277.69,-117.61"/>
<polygon fill="#f91010" stroke="black" points="281.03,-118.68 281.51,-108.1 274.53,-116.07 281.03,-118.68"/>
</g>
<!-- dpdl_models_model_factory -->
<g id="node9" class="node">
<title>dpdl_models_model_factory</title><style>.edge>path:hover{stroke-width:8}</style>
<ellipse fill="#a32828" stroke="black" cx="505.74" cy="-381.21" rx="55.31" ry="21.43"/>
<text text-anchor="middle" x="505.74" y="-384.21" font-family="Helvetica,sans-Serif" font-size="10.00" fill="#ffffff">models.</text>
<text text-anchor="middle" x="505.74" y="-373.21" font-family="Helvetica,sans-Serif" font-size="10.00" fill="#ffffff">model_factory</text>
</g>
<!-- dpdl_configurationmanager&#45;&gt;dpdl_models_model_factory -->
<g id="edge6" class="edge">
<title>dpdl_configurationmanager&#45;&gt;dpdl_models_model_factory</title><style>.edge>path:hover{stroke-width:8}</style>
<path fill="none" stroke="black" d="M477.85,-590.89C519.4,-568.47 587.33,-522.12 582.74,-460.64"/>
</g>
<!-- dpdl_optimizers -->
<g id="node11" class="node">
<title>dpdl_optimizers</title><style>.edge>path:hover{stroke-width:8}</style>
<ellipse fill="#b34c4c" stroke="black" cx="339.74" cy="-534.85" rx="36.49" ry="18"/>
<text text-anchor="middle" x="339.74" y="-532.35" font-family="Helvetica,sans-Serif" font-size="10.00" fill="#ffffff">optimizers</text>
</g>
<!-- dpdl_configurationmanager&#45;&gt;dpdl_optimizers -->
<g id="edge7" class="edge">
<title>dpdl_configurationmanager&#45;&gt;dpdl_optimizers</title><style>.edge>path:hover{stroke-width:8}</style>
<path fill="none" stroke="black" d="M422.46,-589.97C406.85,-579.76 386.46,-566.42 369.83,-555.54"/>
<polygon fill="#f91010" stroke="black" points="371.31,-552.33 361.03,-549.78 367.48,-558.18 371.31,-552.33"/>
</g>
<!-- dpdl_peft -->
<g id="node12" class="node">
<title>dpdl_peft</title><style>.edge>path:hover{stroke-width:8}</style>
<ellipse fill="#b34c4c" stroke="black" cx="473.74" cy="-534.85" rx="27" ry="18"/>
<text text-anchor="middle" x="473.74" y="-532.35" font-family="Helvetica,sans-Serif" font-size="10.00" fill="#ffffff">peft</text>
</g>
<!-- dpdl_configurationmanager&#45;&gt;dpdl_peft -->
<g id="edge8" class="edge">
<title>dpdl_configurationmanager&#45;&gt;dpdl_peft</title><style>.edge>path:hover{stroke-width:8}</style>
<path fill="none" stroke="black" d="M453.28,-588.91C456.36,-580.91 460.11,-571.18 463.56,-562.25"/>
<polygon fill="#f91010" stroke="black" points="466.93,-563.23 467.26,-552.64 460.4,-560.71 466.93,-563.23"/>
</g>
<!-- dpdl_configurationmanager&#45;&gt;dpdl_trainer -->
<g id="edge9" class="edge">
<title>dpdl_configurationmanager&#45;&gt;dpdl_trainer</title><style>.edge>path:hover{stroke-width:8}</style>
<path fill="none" stroke="black" d="M242.74,-380.21C238.99,-335.35 302.54,-350.85 312.74,-307"/>
<path fill="none" stroke="black" d="M312.74,-305C315.95,-291.22 316.24,-275.5 315.6,-262.45"/>
<polygon fill="#f91010" stroke="black" points="319.07,-261.95 314.89,-252.22 312.09,-262.44 319.07,-261.95"/>
</g>
<!-- dpdl_datamodules&#45;&gt;dpdl_hyperparameteroptimizer -->
<g id="edge10" class="edge">
<title>dpdl_datamodules&#45;&gt;dpdl_hyperparameteroptimizer</title><style>.edge>path:hover{stroke-width:8}</style>
<path fill="none" stroke="black" d="M239.78,-287.83C237.97,-273.35 236.98,-252.29 242.74,-235"/>
</g>
<!-- dpdl_datamodules&#45;&gt;dpdl_trainer -->
<g id="edge11" class="edge">
<title>dpdl_datamodules&#45;&gt;dpdl_trainer</title><style>.edge>path:hover{stroke-width:8}</style>
<path fill="none" stroke="black" d="M258.62,-289.12C268.23,-279.51 280.61,-267.13 291.11,-256.63"/>
<polygon fill="#b03a3a" stroke="black" points="293.75,-258.94 298.35,-249.39 288.8,-253.99 293.75,-258.94"/>
</g>
<!-- dpdl_experimentmanager&#45;&gt;dpdl_cli -->
<g id="edge12" class="edge">
<title>dpdl_experimentmanager&#45;&gt;dpdl_cli</title><style>.edge>path:hover{stroke-width:8}</style>
<path fill="none" stroke="black" d="M57.17,-148.43C28.99,-136.99 -2.12,-117.77 8.74,-91"/>
</g>
<!-- dpdl_experimentmanager&#45;&gt;dpdl_hyperparameteroptimizer -->
<g id="edge13" class="edge">
<title>dpdl_experimentmanager&#45;&gt;dpdl_hyperparameteroptimizer</title><style>.edge>path:hover{stroke-width:8}</style>
<path fill="none" stroke="black" d="M133.31,-147.67C163.61,-136.62 206.94,-120.82 240.15,-108.71"/>
<polygon fill="#b03a3a" stroke="black" points="241.47,-111.96 249.67,-105.24 239.08,-105.38 241.47,-111.96"/>
</g>
<!-- dpdl_hyperparameteroptimizer&#45;&gt;dpdl_cli -->
<g id="edge14" class="edge">
<title>dpdl_hyperparameteroptimizer&#45;&gt;dpdl_cli</title><style>.edge>path:hover{stroke-width:8}</style>
<path fill="none" stroke="black" d="M288.74,-71.7C288.74,-63.98 288.74,-54.71 288.74,-46.11"/>
<polygon fill="#964040" stroke="black" points="292.24,-46.1 288.74,-36.1 285.24,-46.1 292.24,-46.1"/>
</g>
<!-- dpdl_models_koskela_model -->
<g id="node7" class="node">
<title>dpdl_models_koskela_model</title><style>.edge>path:hover{stroke-width:8}</style>
<ellipse fill="#b65353" stroke="black" cx="668.74" cy="-459.64" rx="57.97" ry="21.43"/>
<text text-anchor="middle" x="668.74" y="-462.64" font-family="Helvetica,sans-Serif" font-size="10.00" fill="#ffffff">models.</text>
<text text-anchor="middle" x="668.74" y="-451.64" font-family="Helvetica,sans-Serif" font-size="10.00" fill="#ffffff">koskela_model</text>
</g>
<!-- dpdl_models_koskela_model&#45;&gt;dpdl_models_model_factory -->
<g id="edge15" class="edge">
<title>dpdl_models_koskela_model&#45;&gt;dpdl_models_model_factory</title><style>.edge>path:hover{stroke-width:8}</style>
<path fill="none" stroke="black" d="M634.17,-442.43C609.26,-430.75 575.47,-414.91 548.81,-402.41"/>
<polygon fill="#b65353" stroke="black" points="550.24,-399.21 539.7,-398.14 547.27,-405.55 550.24,-399.21"/>
</g>
<!-- dpdl_models_model_base -->
<g id="node8" class="node">
<title>dpdl_models_model_base</title><style>.edge>path:hover{stroke-width:8}</style>
<ellipse fill="#b65353" stroke="black" cx="389.74" cy="-459.64" rx="48.58" ry="21.43"/>
<text text-anchor="middle" x="389.74" y="-462.64" font-family="Helvetica,sans-Serif" font-size="10.00" fill="#ffffff">models.</text>
<text text-anchor="middle" x="389.74" y="-451.64" font-family="Helvetica,sans-Serif" font-size="10.00" fill="#ffffff">model_base</text>
</g>
<!-- dpdl_models_model_base&#45;&gt;dpdl_models_model_factory -->
<g id="edge16" class="edge">
<title>dpdl_models_model_base&#45;&gt;dpdl_models_model_factory</title><style>.edge>path:hover{stroke-width:8}</style>
<path fill="none" stroke="black" d="M415.77,-441.49C431.96,-430.82 452.98,-416.97 470.63,-405.34"/>
<polygon fill="#b65353" stroke="black" points="472.56,-408.26 478.99,-399.84 468.71,-402.42 472.56,-408.26"/>
</g>
<!-- dpdl_models_model_factory&#45;&gt;dpdl_cli -->
<g id="edge17" class="edge">
<title>dpdl_models_model_factory&#45;&gt;dpdl_cli</title><style>.edge>path:hover{stroke-width:8}</style>
<path fill="none" stroke="black" d="M413.74,-161C401.46,-132.42 425.71,-119.71 413.74,-91"/>
</g>
<!-- dpdl_models_model_factory&#45;&gt;dpdl_hyperparameteroptimizer -->
<g id="edge18" class="edge">
<title>dpdl_models_model_factory&#45;&gt;dpdl_hyperparameteroptimizer</title><style>.edge>path:hover{stroke-width:8}</style>
<path fill="none" stroke="black" d="M436.74,-305C394.27,-257.21 445.06,-218.73 413.74,-163"/>
<path fill="none" stroke="black" d="M413.74,-161C402.19,-134.14 374.89,-117.18 348.74,-106.7"/>
<polygon fill="#a32828" stroke="black" points="349.78,-103.36 339.19,-103.13 347.33,-109.91 349.78,-103.36"/>
</g>
<!-- dpdl_models_model_factory&#45;&gt;dpdl_trainer -->
<g id="edge19" class="edge">
<title>dpdl_models_model_factory&#45;&gt;dpdl_trainer</title><style>.edge>path:hover{stroke-width:8}</style>
<path fill="none" stroke="black" d="M486.98,-360.92C472.92,-346.32 453.33,-325.67 436.74,-307"/>
<path fill="none" stroke="black" d="M436.74,-305C412.02,-277.19 373.5,-257.88 345.96,-246.69"/>
<polygon fill="#a32828" stroke="black" points="346.94,-243.32 336.35,-242.94 344.39,-249.84 346.94,-243.32"/>
</g>
<!-- dpdl_models_wide_resnet -->
<g id="node10" class="node">
<title>dpdl_models_wide_resnet</title><style>.edge>path:hover{stroke-width:8}</style>
<ellipse fill="#b65353" stroke="black" cx="505.74" cy="-459.64" rx="48.58" ry="21.43"/>
<text text-anchor="middle" x="505.74" y="-462.64" font-family="Helvetica,sans-Serif" font-size="10.00" fill="#ffffff">models.</text>
<text text-anchor="middle" x="505.74" y="-451.64" font-family="Helvetica,sans-Serif" font-size="10.00" fill="#ffffff">wide_resnet</text>
</g>
<!-- dpdl_models_wide_resnet&#45;&gt;dpdl_models_model_factory -->
<g id="edge20" class="edge">
<title>dpdl_models_wide_resnet&#45;&gt;dpdl_models_model_factory</title><style>.edge>path:hover{stroke-width:8}</style>
<path fill="none" stroke="black" d="M505.74,-438.16C505.74,-430.3 505.74,-421.16 505.74,-412.57"/>
<polygon fill="#b65353" stroke="black" points="509.24,-412.49 505.74,-402.49 502.24,-412.49 509.24,-412.49"/>
</g>
<!-- dpdl_optimizers&#45;&gt;dpdl_trainer -->
<g id="edge21" class="edge">
<title>dpdl_optimizers&#45;&gt;dpdl_trainer</title><style>.edge>path:hover{stroke-width:8}</style>
<path fill="none" stroke="black" d="M333.88,-516.87C321.59,-478.87 295.64,-384.26 312.74,-307"/>
</g>
<!-- dpdl_peft&#45;&gt;dpdl_models_model_factory -->
<g id="edge22" class="edge">
<title>dpdl_peft&#45;&gt;dpdl_models_model_factory</title><style>.edge>path:hover{stroke-width:8}</style>
<path fill="none" stroke="black" d="M499.33,-528.73C532.49,-520.47 585.75,-500.88 582.74,-460.64"/>
<path fill="none" stroke="black" d="M582.74,-458.64C581.05,-436.04 563.94,-417.8 546.28,-404.82"/>
<polygon fill="#b34c4c" stroke="black" points="547.85,-401.65 537.63,-398.87 543.89,-407.42 547.85,-401.65"/>
</g>
<!-- dpdl_trainer&#45;&gt;dpdl_cli -->
<g id="edge23" class="edge">
<title>dpdl_trainer&#45;&gt;dpdl_cli</title><style>.edge>path:hover{stroke-width:8}</style>
<path fill="none" stroke="black" d="M375.74,-161C382.61,-126.27 427.37,-123.67 413.74,-91"/>
<path fill="none" stroke="black" d="M413.74,-89C398.8,-53.16 355.6,-35 324.16,-26.29"/>
<polygon fill="#a32828" stroke="black" points="324.97,-22.88 314.42,-23.78 323.23,-29.66 324.97,-22.88"/>
</g>
<!-- dpdl_trainer&#45;&gt;dpdl_experimentmanager -->
<g id="edge24" class="edge">
<title>dpdl_trainer&#45;&gt;dpdl_experimentmanager</title><style>.edge>path:hover{stroke-width:8}</style>
<path fill="none" stroke="black" d="M288.8,-225.24C254.49,-214.12 190.55,-193.4 145.91,-178.94"/>
<polygon fill="#a32828" stroke="black" points="146.73,-175.52 136.14,-175.77 144.57,-182.18 146.73,-175.52"/>
</g>
<!-- dpdl_trainer&#45;&gt;dpdl_hyperparameteroptimizer -->
<g id="edge25" class="edge">
<title>dpdl_trainer&#45;&gt;dpdl_hyperparameteroptimizer</title><style>.edge>path:hover{stroke-width:8}</style>
<path fill="none" stroke="black" d="M331.48,-220.99C348.19,-208.8 370.76,-188.18 375.74,-163"/>
<path fill="none" stroke="black" d="M375.74,-161C380.34,-137.77 360.74,-120.77 338.98,-109.34"/>
<polygon fill="#a32828" stroke="black" points="340.45,-106.16 329.93,-104.94 337.39,-112.46 340.45,-106.16"/>
</g>
<!-- dpdl_utils -->
<g id="node14" class="node">
<title>dpdl_utils</title><style>.edge>path:hover{stroke-width:8}</style>
<ellipse fill="#db2f2f" stroke="black" cx="172.74" cy="-381.21" rx="27" ry="18"/>
<text text-anchor="middle" x="172.74" y="-378.71" font-family="Helvetica,sans-Serif" font-size="10.00" fill="#ffffff">utils</text>
</g>
<!-- dpdl_utils&#45;&gt;dpdl_cli -->
<g id="edge26" class="edge">
<title>dpdl_utils&#45;&gt;dpdl_cli</title><style>.edge>path:hover{stroke-width:8}</style>
<path fill="none" stroke="black" d="M156.42,-366.53C144.87,-356.01 129.87,-340.52 120.74,-324 100.92,-288.14 107.84,-274.44 96.74,-235"/>
<path fill="none" stroke="black" d="M96.74,-233C77.43,-186.91 27.37,-209.37 8.74,-163"/>
</g>
<!-- dpdl_utils&#45;&gt;dpdl_datamodules -->
<g id="edge27" class="edge">
<title>dpdl_utils&#45;&gt;dpdl_datamodules</title><style>.edge>path:hover{stroke-width:8}</style>
<path fill="none" stroke="black" d="M186.57,-365.75C196.24,-355.63 209.38,-341.9 220.51,-330.25"/>
<polygon fill="#db2f2f" stroke="black" points="223.1,-332.61 227.48,-322.96 218.04,-327.77 223.1,-332.61"/>
</g>
<!-- dpdl_utils&#45;&gt;dpdl_experimentmanager -->
<g id="edge28" class="edge">
<title>dpdl_utils&#45;&gt;dpdl_experimentmanager</title><style>.edge>path:hover{stroke-width:8}</style>
<path fill="none" stroke="black" d="M96.74,-233C92.88,-219.29 92.56,-203.46 93.34,-190.33"/>
<polygon fill="#db2f2f" stroke="black" points="96.85,-190.3 94.2,-180.04 89.88,-189.71 96.85,-190.3"/>
</g>
<!-- dpdl_utils&#45;&gt;dpdl_trainer -->
<g id="edge29" class="edge">
<title>dpdl_utils&#45;&gt;dpdl_trainer</title><style>.edge>path:hover{stroke-width:8}</style>
<path fill="none" stroke="black" d="M171.81,-362.94C171.65,-342.78 174.36,-309.47 191.74,-288 203.26,-273.77 247.51,-256.66 279.16,-245.81"/>
<polygon fill="#db2f2f" stroke="black" points="280.57,-249.03 288.93,-242.52 278.34,-242.39 280.57,-249.03"/>
</g>
</g>
</svg>
