<?xml version="1.0" encoding="UTF-8" standalone="no"?>
<!DOCTYPE svg PUBLIC "-//W3C//DTD SVG 1.1//EN"
 "http://www.w3.org/Graphics/SVG/1.1/DTD/svg11.dtd">
<!-- Generated by graphviz version 2.43.0 (0)
 -->
<!-- Title: G Pages: 1 -->
<svg width="475pt" height="459pt"
 viewBox="0.00 0.00 475.00 459.00" xmlns="http://www.w3.org/2000/svg" xmlns:xlink="http://www.w3.org/1999/xlink">
<g id="graph0" class="graph" transform="scale(1 1) rotate(0) translate(4 455)">
<title>G</title><style>.edge>path:hover{stroke-width:8}</style>
<polygon fill="white" stroke="transparent" points="-4,4 -4,-455 471,-455 471,4 -4,4"/>
<g id="clust1" class="cluster">
<title>cluster_dpdl</title><style>.edge>path:hover{stroke-width:8}</style>
<polygon fill="none" stroke="black" points="8,-8 8,-443 459,-443 459,-8 8,-8"/>
<text text-anchor="middle" x="233.5" y="-427.8" font-family="Times,serif" font-size="14.00">dpdl</text>
</g>
<!-- dpdl_callbacks -->
<g id="node1" class="node">
<title>dpdl_callbacks</title><style>.edge>path:hover{stroke-width:8}</style>
<ellipse fill="#b34c4c" stroke="black" cx="283" cy="-322" rx="34.29" ry="18"/>
<text text-anchor="middle" x="283" y="-319.5" font-family="Helvetica,sans-Serif" font-size="10.00" fill="#ffffff">callbacks</text>
</g>
<!-- dpdl_trainer -->
<g id="node9" class="node">
<title>dpdl_trainer</title><style>.edge>path:hover{stroke-width:8}</style>
<ellipse fill="#ac2b2b" stroke="black" cx="240" cy="-250" rx="27" ry="18"/>
<text text-anchor="middle" x="240" y="-247.5" font-family="Helvetica,sans-Serif" font-size="10.00" fill="#ffffff">trainer</text>
</g>
<!-- dpdl_callbacks&#45;&gt;dpdl_trainer -->
<g id="edge1" class="edge">
<title>dpdl_callbacks&#45;&gt;dpdl_trainer</title><style>.edge>path:hover{stroke-width:8}</style>
<path fill="none" stroke="black" d="M273.03,-304.76C267.76,-296.19 261.19,-285.49 255.3,-275.9"/>
<polygon fill="#000000" stroke="black" points="258.14,-273.84 249.92,-267.15 252.17,-277.5 258.14,-273.84"/>
</g>
<!-- dpdl_cli -->
<g id="node2" class="node">
<title>dpdl_cli</title><style>.edge>path:hover{stroke-width:8}</style>
<ellipse fill="#8b4b4b" stroke="black" cx="292" cy="-34" rx="27" ry="18"/>
<text text-anchor="middle" x="292" y="-31.5" font-family="Helvetica,sans-Serif" font-size="10.00" fill="#ffffff">cli</text>
</g>
<!-- dpdl_configurationmanager -->
<g id="node3" class="node">
<title>dpdl_configurationmanager</title><style>.edge>path:hover{stroke-width:8}</style>
<ellipse fill="#f91010" stroke="black" cx="323" cy="-394" rx="64.51" ry="18"/>
<text text-anchor="middle" x="323" y="-391.5" font-family="Helvetica,sans-Serif" font-size="10.00" fill="#ffffff">configurationmanager</text>
</g>
<!-- dpdl_configurationmanager&#45;&gt;dpdl_callbacks -->
<g id="edge2" class="edge">
<title>dpdl_configurationmanager&#45;&gt;dpdl_callbacks</title><style>.edge>path:hover{stroke-width:8}</style>
<path fill="none" stroke="black" d="M313.32,-376.05C308.6,-367.8 302.83,-357.7 297.59,-348.54"/>
<polygon fill="#000000" stroke="black" points="300.59,-346.73 292.59,-339.79 294.52,-350.21 300.59,-346.73"/>
</g>
<!-- dpdl_configurationmanager&#45;&gt;dpdl_cli -->
<g id="edge3" class="edge">
<title>dpdl_configurationmanager&#45;&gt;dpdl_cli</title><style>.edge>path:hover{stroke-width:8}</style>
<path fill="none" stroke="black" d="M364.22,-380.11C384.85,-371.71 408.64,-358.77 424,-340 450.1,-308.11 450,-292.21 450,-251 450,-251 450,-251 450,-177 450,-110.2 370.91,-66.85 324.65,-47.2"/>
<polygon fill="#000000" stroke="black" points="325.89,-43.92 315.31,-43.36 323.23,-50.4 325.89,-43.92"/>
</g>
<!-- dpdl_datamodules -->
<g id="node4" class="node">
<title>dpdl_datamodules</title><style>.edge>path:hover{stroke-width:8}</style>
<ellipse fill="#a44646" stroke="black" cx="78" cy="-322" rx="42.27" ry="18"/>
<text text-anchor="middle" x="78" y="-319.5" font-family="Helvetica,sans-Serif" font-size="10.00" fill="#ffffff">datamodules</text>
</g>
<!-- dpdl_configurationmanager&#45;&gt;dpdl_datamodules -->
<g id="edge4" class="edge">
<title>dpdl_configurationmanager&#45;&gt;dpdl_datamodules</title><style>.edge>path:hover{stroke-width:8}</style>
<path fill="none" stroke="black" d="M277.2,-381.09C237.98,-370.72 180.08,-355.05 130,-340 126.67,-339 123.23,-337.94 119.78,-336.85"/>
<polygon fill="#000000" stroke="black" points="120.69,-333.47 110.1,-333.76 118.56,-340.14 120.69,-333.47"/>
</g>
<!-- dpdl_experimentmanager -->
<g id="node5" class="node">
<title>dpdl_experimentmanager</title><style>.edge>path:hover{stroke-width:8}</style>
<ellipse fill="#b83d3d" stroke="black" cx="371" cy="-178" rx="60.09" ry="18"/>
<text text-anchor="middle" x="371" y="-175.5" font-family="Helvetica,sans-Serif" font-size="10.00" fill="#ffffff">experimentmanager</text>
</g>
<!-- dpdl_configurationmanager&#45;&gt;dpdl_experimentmanager -->
<g id="edge5" class="edge">
<title>dpdl_configurationmanager&#45;&gt;dpdl_experimentmanager</title><style>.edge>path:hover{stroke-width:8}</style>
<path fill="none" stroke="black" d="M364.41,-380.03C383.37,-371.78 404.02,-358.99 415,-340 440.18,-296.43 410.95,-237.88 389.54,-204.73"/>
<polygon fill="#000000" stroke="black" points="392.23,-202.45 383.76,-196.08 386.41,-206.34 392.23,-202.45"/>
</g>
<!-- dpdl_hyperparameteroptimizer -->
<g id="node6" class="node">
<title>dpdl_hyperparameteroptimizer</title><style>.edge>path:hover{stroke-width:8}</style>
<ellipse fill="#a44646" stroke="black" cx="292" cy="-106" rx="72.99" ry="18"/>
<text text-anchor="middle" x="292" y="-103.5" font-family="Helvetica,sans-Serif" font-size="10.00" fill="#ffffff">hyperparameteroptimizer</text>
</g>
<!-- dpdl_configurationmanager&#45;&gt;dpdl_hyperparameteroptimizer -->
<g id="edge6" class="edge">
<title>dpdl_configurationmanager&#45;&gt;dpdl_hyperparameteroptimizer</title><style>.edge>path:hover{stroke-width:8}</style>
<path fill="none" stroke="black" d="M357.43,-378.61C373.45,-369.96 390.94,-357.24 400,-340 407.44,-325.84 405.76,-318.93 400,-304 376.66,-243.53 328.69,-255.07 302,-196 293.26,-176.67 291,-152.66 290.79,-134.45"/>
<polygon fill="#000000" stroke="black" points="294.29,-134.25 290.88,-124.22 287.29,-134.19 294.29,-134.25"/>
</g>
<!-- dpdl_models -->
<g id="node7" class="node">
<title>dpdl_models</title><style>.edge>path:hover{stroke-width:8}</style>
<ellipse fill="#b34c4c" stroke="black" cx="363" cy="-322" rx="28.01" ry="18"/>
<text text-anchor="middle" x="363" y="-319.5" font-family="Helvetica,sans-Serif" font-size="10.00" fill="#ffffff">models</text>
</g>
<!-- dpdl_configurationmanager&#45;&gt;dpdl_models -->
<g id="edge7" class="edge">
<title>dpdl_configurationmanager&#45;&gt;dpdl_models</title><style>.edge>path:hover{stroke-width:8}</style>
<path fill="none" stroke="black" d="M332.68,-376.05C337.47,-367.68 343.34,-357.4 348.64,-348.13"/>
<polygon fill="#000000" stroke="black" points="351.76,-349.73 353.68,-339.31 345.68,-346.25 351.76,-349.73"/>
</g>
<!-- dpdl_optimizers -->
<g id="node8" class="node">
<title>dpdl_optimizers</title><style>.edge>path:hover{stroke-width:8}</style>
<ellipse fill="#b34c4c" stroke="black" cx="175" cy="-322" rx="36.49" ry="18"/>
<text text-anchor="middle" x="175" y="-319.5" font-family="Helvetica,sans-Serif" font-size="10.00" fill="#ffffff">optimizers</text>
</g>
<!-- dpdl_configurationmanager&#45;&gt;dpdl_optimizers -->
<g id="edge8" class="edge">
<title>dpdl_configurationmanager&#45;&gt;dpdl_optimizers</title><style>.edge>path:hover{stroke-width:8}</style>
<path fill="none" stroke="black" d="M291.61,-378.15C267.54,-366.77 234.33,-351.06 209.51,-339.32"/>
<polygon fill="#000000" stroke="black" points="210.98,-336.15 200.44,-335.03 207.99,-342.47 210.98,-336.15"/>
</g>
<!-- dpdl_configurationmanager&#45;&gt;dpdl_trainer -->
<g id="edge9" class="edge">
<title>dpdl_configurationmanager&#45;&gt;dpdl_trainer</title><style>.edge>path:hover{stroke-width:8}</style>
<path fill="none" stroke="black" d="M285.53,-379.04C268.4,-370.55 249.78,-357.84 240,-340 229.65,-321.11 230.57,-296.4 233.56,-277.81"/>
<polygon fill="#000000" stroke="black" points="237.01,-278.4 235.43,-267.93 230.13,-277.1 237.01,-278.4"/>
</g>
<!-- dpdl_datamodules&#45;&gt;dpdl_trainer -->
<g id="edge10" class="edge">
<title>dpdl_datamodules&#45;&gt;dpdl_trainer</title><style>.edge>path:hover{stroke-width:8}</style>
<path fill="none" stroke="black" d="M106.59,-308.65C135.15,-296.3 178.95,-277.38 208.5,-264.61"/>
<polygon fill="#000000" stroke="black" points="210.14,-267.72 217.93,-260.54 207.36,-261.29 210.14,-267.72"/>
</g>
<!-- dpdl_experimentmanager&#45;&gt;dpdl_cli -->
<g id="edge11" class="edge">
<title>dpdl_experimentmanager&#45;&gt;dpdl_cli</title><style>.edge>path:hover{stroke-width:8}</style>
<path fill="none" stroke="black" d="M376.49,-159.75C381.42,-140.9 386.2,-110.4 374,-88 363.61,-68.91 343.05,-55.64 325.11,-47.16"/>
<polygon fill="#000000" stroke="black" points="326.07,-43.75 315.5,-42.93 323.25,-50.16 326.07,-43.75"/>
</g>
<!-- dpdl_experimentmanager&#45;&gt;dpdl_hyperparameteroptimizer -->
<g id="edge12" class="edge">
<title>dpdl_experimentmanager&#45;&gt;dpdl_hyperparameteroptimizer</title><style>.edge>path:hover{stroke-width:8}</style>
<path fill="none" stroke="black" d="M352.68,-160.76C342.46,-151.71 329.55,-140.27 318.27,-130.28"/>
<polygon fill="#000000" stroke="black" points="320.58,-127.65 310.77,-123.63 315.94,-132.88 320.58,-127.65"/>
</g>
<!-- dpdl_hyperparameteroptimizer&#45;&gt;dpdl_cli -->
<g id="edge13" class="edge">
<title>dpdl_hyperparameteroptimizer&#45;&gt;dpdl_cli</title><style>.edge>path:hover{stroke-width:8}</style>
<path fill="none" stroke="black" d="M292,-87.7C292,-79.98 292,-70.71 292,-62.11"/>
<polygon fill="#000000" stroke="black" points="295.5,-62.1 292,-52.1 288.5,-62.1 295.5,-62.1"/>
</g>
<!-- dpdl_models&#45;&gt;dpdl_trainer -->
<g id="edge14" class="edge">
<title>dpdl_models&#45;&gt;dpdl_trainer</title><style>.edge>path:hover{stroke-width:8}</style>
<path fill="none" stroke="black" d="M342.69,-309.44C322.54,-297.97 291.47,-280.29 268.78,-267.38"/>
<polygon fill="#000000" stroke="black" points="270.36,-264.25 259.93,-262.34 266.89,-270.33 270.36,-264.25"/>
</g>
<!-- dpdl_optimizers&#45;&gt;dpdl_trainer -->
<g id="edge15" class="edge">
<title>dpdl_optimizers&#45;&gt;dpdl_trainer</title><style>.edge>path:hover{stroke-width:8}</style>
<path fill="none" stroke="black" d="M189.43,-305.46C198.13,-296.09 209.37,-283.99 219.04,-273.57"/>
<polygon fill="#000000" stroke="black" points="221.82,-275.72 226.06,-266.01 216.69,-270.96 221.82,-275.72"/>
</g>
<!-- dpdl_trainer&#45;&gt;dpdl_cli -->
<g id="edge16" class="edge">
<title>dpdl_trainer&#45;&gt;dpdl_cli</title><style>.edge>path:hover{stroke-width:8}</style>
<path fill="none" stroke="black" d="M230.42,-232.83C213.82,-202.54 183.9,-135.95 210,-88 220.39,-68.91 240.95,-55.64 258.89,-47.16"/>
<polygon fill="#000000" stroke="black" points="260.75,-50.16 268.5,-42.93 257.93,-43.75 260.75,-50.16"/>
</g>
<!-- dpdl_trainer&#45;&gt;dpdl_experimentmanager -->
<g id="edge17" class="edge">
<title>dpdl_trainer&#45;&gt;dpdl_experimentmanager</title><style>.edge>path:hover{stroke-width:8}</style>
<path fill="none" stroke="black" d="M260.47,-238.06C280.04,-227.61 309.99,-211.6 333.79,-198.89"/>
<polygon fill="#000000" stroke="black" points="335.73,-201.82 342.9,-194.02 332.43,-195.64 335.73,-201.82"/>
</g>
<!-- dpdl_trainer&#45;&gt;dpdl_hyperparameteroptimizer -->
<g id="edge18" class="edge">
<title>dpdl_trainer&#45;&gt;dpdl_hyperparameteroptimizer</title><style>.edge>path:hover{stroke-width:8}</style>
<path fill="none" stroke="black" d="M246.07,-232.43C254.93,-208.22 271.53,-162.89 282.16,-133.87"/>
<polygon fill="#000000" stroke="black" points="285.5,-134.94 285.65,-124.35 278.92,-132.53 285.5,-134.94"/>
</g>
<!-- dpdl_utils -->
<g id="node10" class="node">
<title>dpdl_utils</title><style>.edge>path:hover{stroke-width:8}</style>
<ellipse fill="#c24747" stroke="black" cx="61" cy="-394" rx="27" ry="18"/>
<text text-anchor="middle" x="61" y="-391.5" font-family="Helvetica,sans-Serif" font-size="10.00" fill="#ffffff">utils</text>
</g>
<!-- dpdl_utils&#45;&gt;dpdl_cli -->
<g id="edge19" class="edge">
<title>dpdl_utils&#45;&gt;dpdl_cli</title><style>.edge>path:hover{stroke-width:8}</style>
<path fill="none" stroke="black" d="M48.53,-377.77C40.99,-367.68 31.9,-353.8 27,-340 13.68,-302.49 17,-290.8 17,-251 17,-251 17,-251 17,-177 17,-71.24 179.55,-44.17 254.71,-37.3"/>
<polygon fill="#000000" stroke="black" points="255.46,-40.75 265.13,-36.43 254.87,-33.78 255.46,-40.75"/>
</g>
<!-- dpdl_utils&#45;&gt;dpdl_datamodules -->
<g id="edge20" class="edge">
<title>dpdl_utils&#45;&gt;dpdl_datamodules</title><style>.edge>path:hover{stroke-width:8}</style>
<path fill="none" stroke="black" d="M65.12,-376.05C67.01,-368.26 69.3,-358.82 71.42,-350.08"/>
<polygon fill="#000000" stroke="black" points="74.85,-350.82 73.8,-340.28 68.04,-349.17 74.85,-350.82"/>
</g>
</g>
</svg>
